<?xml version="1.0" encoding="UTF-8"?>
<svg xmlns="http://www.w3.org/2000/svg" viewBox="0 0 900 460"
     font-family="system-ui, -apple-system, sans-serif">

  <defs>
    <marker id="scatter-arrow" viewBox="0 0 10 10" refX="9" refY="5"
            markerWidth="7" markerHeight="7" orient="auto-start-reverse">
      <path d="M 0 0 L 10 5 L 0 10 z" fill="#2e7d32"/>
    </marker>
    <marker id="scatter-arrow-red" viewBox="0 0 10 10" refX="9" refY="5"
            markerWidth="7" markerHeight="7" orient="auto-start-reverse">
      <path d="M 0 0 L 10 5 L 0 10 z" fill="#c62828"/>
    </marker>
  </defs>

  <!-- Title -->
  <text x="450" y="30" text-anchor="middle" font-size="20" font-weight="700" fill="#222">
    Read lengths — 1000 reads (scatter)
  </text>

  <!-- Chart area:
       x: 0..1000 -> px [130, 770]
       y: 0..300  -> px [400, 90] -->
  <rect x="130" y="90" width="640" height="310" fill="white"
        stroke="#1976d2" stroke-width="1.6"/>

  <!-- ===== y axis ticks: 0, 100, 200, 300 =====
       y_px(v) = 400 - (v/300)*310  -> 0:400, 100:296.7, 200:193.3, 300:90 -->
  <g font-size="13" fill="#444" font-family="ui-monospace, monospace">
    <line x1="126" y1="400" x2="130" y2="400" stroke="#1976d2" stroke-width="1.4"/>
    <text x="120" y="404" text-anchor="end">0</text>
    <line x1="126" y1="297" x2="130" y2="297" stroke="#1976d2" stroke-width="1.4"/>
    <text x="120" y="301" text-anchor="end">100</text>
    <line x1="126" y1="193" x2="130" y2="193" stroke="#1976d2" stroke-width="1.4"/>
    <text x="120" y="197" text-anchor="end">200</text>
    <line x1="126" y1="90"  x2="130" y2="90"  stroke="#1976d2" stroke-width="1.4"/>
    <text x="120" y="94"  text-anchor="end">300</text>
  </g>

  <!-- y axis label -->
  <text x="75" y="245" text-anchor="middle" font-size="14" font-weight="600" fill="#222"
        transform="rotate(-90 75 245)">
    read length (bp)
  </text>

  <!-- ===== x axis ticks: 0, 200, 400, 600, 800, 1000 =====
       x_px(v) = 130 + (v/1000)*640 -> 0:130, 200:258, 400:386, 600:514, 800:642, 1000:770 -->
  <g font-size="13" fill="#444" font-family="ui-monospace, monospace">
    <line x1="130" y1="400" x2="130" y2="404" stroke="#1976d2" stroke-width="1.4"/>
    <text x="130" y="420" text-anchor="middle">0</text>
    <line x1="258" y1="400" x2="258" y2="404" stroke="#1976d2" stroke-width="1.4"/>
    <text x="258" y="420" text-anchor="middle">200</text>
    <line x1="386" y1="400" x2="386" y2="404" stroke="#1976d2" stroke-width="1.4"/>
    <text x="386" y="420" text-anchor="middle">400</text>
    <line x1="514" y1="400" x2="514" y2="404" stroke="#1976d2" stroke-width="1.4"/>
    <text x="514" y="420" text-anchor="middle">600</text>
    <line x1="642" y1="400" x2="642" y2="404" stroke="#1976d2" stroke-width="1.4"/>
    <text x="642" y="420" text-anchor="middle">800</text>
    <line x1="770" y1="400" x2="770" y2="404" stroke="#1976d2" stroke-width="1.4"/>
    <text x="770" y="420" text-anchor="middle">1000</text>
  </g>

  <!-- x axis label -->
  <text x="450" y="445" text-anchor="middle" font-size="14" font-weight="600" fill="#222">
    read index (0..1000)
  </text>

  <!-- ===== Scatter dots ===== -->
  <g fill="#1976d2" fill-opacity="0.8">
    <circle cx="337.3" cy="229.3" r="3"/>
    <circle cx="176.4" cy="223.1" r="3"/>
    <circle cx="473.0" cy="249.3" r="3"/>
    <circle cx="454.8" cy="240.2" r="3"/>
    <circle cx="154.0" cy="251.5" r="3"/>
    <circle cx="188.1" cy="242.1" r="3"/>
    <circle cx="401.7" cy="240.6" r="3"/>
    <circle cx="272.9" cy="253.5" r="3"/>
    <circle cx="531.6" cy="221.9" r="3"/>
    <circle cx="383.9" cy="252.9" r="3"/>
    <circle cx="754.8" cy="209.8" r="3"/>
    <circle cx="315.3" cy="234.4" r="3"/>
    <circle cx="222.3" cy="233.2" r="3"/>
    <circle cx="652.3" cy="234.2" r="3"/>
    <circle cx="245.7" cy="268.1" r="3"/>
    <circle cx="368.3" cy="258.0" r="3"/>
    <circle cx="480.6" cy="239.0" r="3"/>
    <circle cx="261.8" cy="242.5" r="3"/>
    <circle cx="565.5" cy="259.5" r="3"/>
    <circle cx="504.8" cy="237.9" r="3"/>
    <circle cx="420.0" cy="255.2" r="3"/>
    <circle cx="577.4" cy="213.5" r="3"/>
    <circle cx="286.2" cy="265.3" r="3"/>
    <circle cx="690.1" cy="255.2" r="3"/>
    <circle cx="596.8" cy="257.3" r="3"/>
    <circle cx="205.6" cy="194.4" r="3"/>
    <circle cx="397.6" cy="244.5" r="3"/>
    <circle cx="442.9" cy="255.7" r="3"/>
    <circle cx="155.1" cy="260.5" r="3"/>
    <circle cx="496.7" cy="272.5" r="3"/>
    <circle cx="690.3" cy="256.2" r="3"/>
    <circle cx="510.4" cy="218.6" r="3"/>
    <circle cx="501.1" cy="279.3" r="3"/>
    <circle cx="734.6" cy="235.3" r="3"/>
    <circle cx="433.4" cy="248.4" r="3"/>
    <circle cx="579.0" cy="250.6" r="3"/>
    <circle cx="544.2" cy="210.5" r="3"/>
    <circle cx="312.1" cy="246.5" r="3"/>
    <circle cx="376.9" cy="246.9" r="3"/>
    <circle cx="425.5" cy="248.5" r="3"/>
    <circle cx="237.6" cy="240.2" r="3"/>
    <circle cx="621.7" cy="240.6" r="3"/>
    <circle cx="212.8" cy="244.7" r="3"/>
    <circle cx="687.7" cy="226.5" r="3"/>
    <circle cx="181.6" cy="267.3" r="3"/>
    <circle cx="695.4" cy="237.6" r="3"/>
    <circle cx="654.3" cy="235.1" r="3"/>
    <circle cx="395.8" cy="256.3" r="3"/>
    <circle cx="359.6" cy="210.1" r="3"/>
    <circle cx="226.6" cy="276.1" r="3"/>
    <circle cx="242.8" cy="243.5" r="3"/>
    <circle cx="440.4" cy="231.5" r="3"/>
    <circle cx="507.0" cy="245.1" r="3"/>
    <circle cx="398.1" cy="243.3" r="3"/>
    <circle cx="366.3" cy="287.1" r="3"/>
    <circle cx="571.9" cy="263.6" r="3"/>
    <circle cx="459.9" cy="265.6" r="3"/>
    <circle cx="164.6" cy="263.8" r="3"/>
    <circle cx="705.7" cy="237.9" r="3"/>
    <circle cx="640.6" cy="282.2" r="3"/>
    <circle cx="381.1" cy="315.6" r="3"/>
    <circle cx="535.9" cy="300.7" r="3"/>
    <circle cx="169.8" cy="292.8" r="3"/>
    <circle cx="233.9" cy="300.6" r="3"/>
    <circle cx="347.6" cy="306.5" r="3"/>
    <circle cx="226.8" cy="306.8" r="3"/>
    <circle cx="194.9" cy="310.4" r="3"/>
    <circle cx="689.6" cy="303.1" r="3"/>
    <circle cx="523.0" cy="296.7" r="3"/>
    <circle cx="352.3" cy="293.1" r="3"/>
    <circle cx="363.1" cy="275.3" r="3"/>
    <circle cx="765.6" cy="276.2" r="3"/>
    <circle cx="428.2" cy="316.6" r="3"/>
    <circle cx="195.4" cy="306.0" r="3"/>
    <circle cx="349.3" cy="311.0" r="3"/>
    <circle cx="298.3" cy="343.2" r="3"/>
    <circle cx="236.3" cy="349.0" r="3"/>
    <circle cx="291.7" cy="361.7" r="3"/>
    <circle cx="469.3" cy="348.7" r="3"/>
    <circle cx="664.4" cy="357.0" r="3"/>
    <circle cx="612.8" cy="360.8" r="3"/>
    <circle cx="390.3" cy="364.7" r="3"/>
    <circle cx="300.8" cy="357.3" r="3"/>
  </g>

  <!-- ===== Annotation 1: modal read length cluster (~y=150bp -> ~y_px=245) ===== -->
  <line x1="820" y1="180" x2="660" y2="240" stroke="#2e7d32" stroke-width="1.4"
        marker-end="url(#scatter-arrow)"/>
  <text x="795" y="160" font-size="13" font-weight="700" fill="#2e7d32"
        font-family="ui-monospace, monospace" text-anchor="end">modal read length</text>
  <text x="795" y="176" font-size="12" fill="#2e7d32"
        font-family="ui-monospace, monospace" text-anchor="end">(~150 bp)</text>

  <!-- ===== Annotation 2: shorter-reads cluster (~y=40bp -> ~y_px=360) ===== -->
  <line x1="100" y1="370" x2="220" y2="358" stroke="#c62828" stroke-width="1.4"
        marker-end="url(#scatter-arrow-red)"/>
  <text x="95" y="365" font-size="13" font-weight="700" fill="#c62828"
        font-family="ui-monospace, monospace" text-anchor="end">shorter reads</text>
  <text x="95" y="381" font-size="12" fill="#c62828"
        font-family="ui-monospace, monospace" text-anchor="end">(adaptor-trimmed?)</text>

</svg>
