<?xml version="1.0" encoding="UTF-8"?>
<svg xmlns="http://www.w3.org/2000/svg" viewBox="0 0 760 300"
     font-family="system-ui, -apple-system, sans-serif">

  <defs>
    <marker id="ah-anno" viewBox="0 0 10 10" refX="9" refY="5"
            markerWidth="7" markerHeight="7" orient="auto-start-reverse">
      <path d="M 0 0 L 10 5 L 0 10 z" fill="#444"/>
    </marker>
  </defs>

  <text x="380" y="28" text-anchor="middle" font-size="17" font-weight="600">
    Half-open coordinates: the interval [100, 200)
  </text>
  <text x="380" y="48" text-anchor="middle" font-size="14" fill="#555">
    start is included, end is excluded — the BED/UCSC convention
  </text>

  <!-- ===== Shaded bracket bar for [100, 200) =====
       Number-line origin: x = 60 corresponds to coordinate 0,
       and coordinate c maps to x = 60 + c * 2  (so 300 maps to x = 660).
       => coord 100 -> x=260, coord 200 -> x=460
  -->
  <rect x="260" y="95" width="200" height="26" fill="#e3f2fd" stroke="#90caf9"/>
  <text x="360" y="113" text-anchor="middle" font-size="13"
        font-family="ui-monospace, monospace" fill="#0d47a1">
    length = end − start = 100
  </text>

  <!-- ===== Number line ===== -->
  <line x1="60" y1="170" x2="660" y2="170" stroke="#333" stroke-width="2"/>

  <!-- tick marks at 0,50,100,150,200,250,300 -->
  <g stroke="#333" stroke-width="1.5">
    <line x1="60"  y1="165" x2="60"  y2="178"/>
    <line x1="160" y1="165" x2="160" y2="178"/>
    <line x1="260" y1="165" x2="260" y2="178"/>
    <line x1="360" y1="165" x2="360" y2="178"/>
    <line x1="460" y1="165" x2="460" y2="178"/>
    <line x1="560" y1="165" x2="560" y2="178"/>
    <line x1="660" y1="165" x2="660" y2="178"/>
  </g>

  <!-- tick labels -->
  <g font-size="14" fill="#555" text-anchor="middle">
    <text x="60"  y="195">0</text>
    <text x="160" y="195">50</text>
    <text x="260" y="195">100</text>
    <text x="360" y="195">150</text>
    <text x="460" y="195">200</text>
    <text x="560" y="195">250</text>
    <text x="660" y="195">300</text>
  </g>

  <!-- ===== start marker: filled black circle at coord 100 ===== -->
  <circle cx="260" cy="170" r="8" fill="#111" stroke="#111" stroke-width="1.5"/>
  <text x="260" y="148" text-anchor="middle" font-size="15"
        font-family="ui-monospace, monospace" font-weight="700">start = 100</text>
  <text x="260" y="133" text-anchor="middle" font-size="13" fill="#555">(inclusive)</text>

  <!-- ===== end marker: open circle at coord 200 ===== -->
  <circle cx="460" cy="170" r="8" fill="white" stroke="#111" stroke-width="2"/>
  <text x="460" y="148" text-anchor="middle" font-size="15"
        font-family="ui-monospace, monospace" font-weight="700">end = 200</text>
  <text x="460" y="133" text-anchor="middle" font-size="13" fill="#555">(exclusive)</text>

  <!-- ===== Annotation to the right of end ===== -->
  <!-- Arrow from text down-left to point at the end position (460, 170) -->
  <line x1="560" y1="240" x2="470" y2="180"
        stroke="#444" stroke-width="1.5" marker-end="url(#ah-anno)"/>
  <text x="535" y="252" font-size="14" fill="#333">
    the next interval
    <tspan font-family="ui-monospace, monospace" font-weight="700">[200, 300)</tspan>
  </text>
  <text x="535" y="269" font-size="14" fill="#333">
    starts here — no overlap,
  </text>
  <text x="535" y="285" font-size="14" fill="#333">
    no gap.
  </text>

</svg>
