<?xml version="1.0" encoding="UTF-8"?>
<svg xmlns="http://www.w3.org/2000/svg" viewBox="0 0 900 500" font-family="system-ui, -apple-system, sans-serif">
  <title>Bioinformatics matrix examples</title>

  <text x="450" y="30" text-anchor="middle" font-size="22" font-weight="600" fill="#111">Bioinformatics is full of matrices</text>

  <!-- ============== Top-left: scRNA expression ============== -->
  <g transform="translate(60,70)">
    <text x="180" y="-10" text-anchor="middle" font-size="15" font-weight="600" fill="#1976d2">single-cell expression</text>
    <text x="180" y="8" text-anchor="middle" font-size="13" fill="#555">genes (rows) x cells (cols) — mostly zero</text>

    <!-- 4 rows x 6 cols, cell 32 x 32 -->
    <g font-family="ui-monospace, monospace" font-size="13" text-anchor="middle">
      <!-- row 0 -->
      <rect x="0"   y="20" width="32" height="32" fill="#f5f5f5" stroke="#bbb"/>
      <rect x="32"  y="20" width="32" height="32" fill="#f5f5f5" stroke="#bbb"/>
      <rect x="64"  y="20" width="32" height="32" fill="#1976d2" stroke="#0d47a1"/><text x="80" y="40" fill="#fff">7</text>
      <rect x="96"  y="20" width="32" height="32" fill="#f5f5f5" stroke="#bbb"/>
      <rect x="128" y="20" width="32" height="32" fill="#f5f5f5" stroke="#bbb"/>
      <rect x="160" y="20" width="32" height="32" fill="#f5f5f5" stroke="#bbb"/>
      <!-- row 1 -->
      <rect x="0"   y="52" width="32" height="32" fill="#f5f5f5" stroke="#bbb"/>
      <rect x="32"  y="52" width="32" height="32" fill="#1976d2" stroke="#0d47a1"/><text x="48" y="72" fill="#fff">3</text>
      <rect x="64"  y="52" width="32" height="32" fill="#f5f5f5" stroke="#bbb"/>
      <rect x="96"  y="52" width="32" height="32" fill="#f5f5f5" stroke="#bbb"/>
      <rect x="128" y="52" width="32" height="32" fill="#90caf9" stroke="#1976d2"/><text x="144" y="72" fill="#0d47a1">1</text>
      <rect x="160" y="52" width="32" height="32" fill="#f5f5f5" stroke="#bbb"/>
      <!-- row 2 -->
      <rect x="0"   y="84" width="32" height="32" fill="#f5f5f5" stroke="#bbb"/>
      <rect x="32"  y="84" width="32" height="32" fill="#f5f5f5" stroke="#bbb"/>
      <rect x="64"  y="84" width="32" height="32" fill="#f5f5f5" stroke="#bbb"/>
      <rect x="96"  y="84" width="32" height="32" fill="#1976d2" stroke="#0d47a1"/><text x="112" y="104" fill="#fff">5</text>
      <rect x="128" y="84" width="32" height="32" fill="#f5f5f5" stroke="#bbb"/>
      <rect x="160" y="84" width="32" height="32" fill="#90caf9" stroke="#1976d2"/><text x="176" y="104" fill="#0d47a1">2</text>
      <!-- row 3 -->
      <rect x="0"   y="116" width="32" height="32" fill="#f5f5f5" stroke="#bbb"/>
      <rect x="32"  y="116" width="32" height="32" fill="#f5f5f5" stroke="#bbb"/>
      <rect x="64"  y="116" width="32" height="32" fill="#f5f5f5" stroke="#bbb"/>
      <rect x="96"  y="116" width="32" height="32" fill="#f5f5f5" stroke="#bbb"/>
      <rect x="128" y="116" width="32" height="32" fill="#f5f5f5" stroke="#bbb"/>
      <rect x="160" y="116" width="32" height="32" fill="#f5f5f5" stroke="#bbb"/>
    </g>
  </g>

  <!-- ============== Top-right: distance matrix ============== -->
  <g transform="translate(520,70)">
    <text x="160" y="-10" text-anchor="middle" font-size="15" font-weight="600" fill="#2e7d32">pairwise distance matrix</text>
    <text x="160" y="8" text-anchor="middle" font-size="13" fill="#555">symmetric, diagonal zero</text>

    <g font-family="ui-monospace, monospace" font-size="12" text-anchor="middle">
      <!-- 5x5 matrix, cell 60 x 26 -->
      <!-- row 0 -->
      <rect x="0"   y="20" width="60" height="26" fill="#e8f5e9" stroke="#2e7d32"/><text x="30"  y="38" fill="#1b5e20">0.0</text>
      <rect x="60"  y="20" width="60" height="26" fill="#fff"     stroke="#2e7d32"/><text x="90"  y="38" fill="#222">0.5</text>
      <rect x="120" y="20" width="60" height="26" fill="#fff"     stroke="#2e7d32"/><text x="150" y="38" fill="#222">1.2</text>
      <rect x="180" y="20" width="60" height="26" fill="#fff"     stroke="#2e7d32"/><text x="210" y="38" fill="#222">0.8</text>
      <rect x="240" y="20" width="60" height="26" fill="#fff"     stroke="#2e7d32"/><text x="270" y="38" fill="#222">1.7</text>
      <!-- row 1 -->
      <rect x="0"   y="46" width="60" height="26" fill="#fff"     stroke="#2e7d32"/><text x="30"  y="64" fill="#222">0.5</text>
      <rect x="60"  y="46" width="60" height="26" fill="#e8f5e9" stroke="#2e7d32"/><text x="90"  y="64" fill="#1b5e20">0.0</text>
      <rect x="120" y="46" width="60" height="26" fill="#fff"     stroke="#2e7d32"/><text x="150" y="64" fill="#222">0.9</text>
      <rect x="180" y="46" width="60" height="26" fill="#fff"     stroke="#2e7d32"/><text x="210" y="64" fill="#222">0.3</text>
      <rect x="240" y="46" width="60" height="26" fill="#fff"     stroke="#2e7d32"/><text x="270" y="64" fill="#222">1.4</text>
      <!-- row 2 -->
      <rect x="0"   y="72" width="60" height="26" fill="#fff"     stroke="#2e7d32"/><text x="30"  y="90" fill="#222">1.2</text>
      <rect x="60"  y="72" width="60" height="26" fill="#fff"     stroke="#2e7d32"/><text x="90"  y="90" fill="#222">0.9</text>
      <rect x="120" y="72" width="60" height="26" fill="#e8f5e9" stroke="#2e7d32"/><text x="150" y="90" fill="#1b5e20">0.0</text>
      <rect x="180" y="72" width="60" height="26" fill="#fff"     stroke="#2e7d32"/><text x="210" y="90" fill="#222">0.6</text>
      <rect x="240" y="72" width="60" height="26" fill="#fff"     stroke="#2e7d32"/><text x="270" y="90" fill="#222">0.4</text>
      <!-- row 3 -->
      <rect x="0"   y="98" width="60" height="26" fill="#fff"     stroke="#2e7d32"/><text x="30"  y="116" fill="#222">0.8</text>
      <rect x="60"  y="98" width="60" height="26" fill="#fff"     stroke="#2e7d32"/><text x="90"  y="116" fill="#222">0.3</text>
      <rect x="120" y="98" width="60" height="26" fill="#fff"     stroke="#2e7d32"/><text x="150" y="116" fill="#222">0.6</text>
      <rect x="180" y="98" width="60" height="26" fill="#e8f5e9" stroke="#2e7d32"/><text x="210" y="116" fill="#1b5e20">0.0</text>
      <rect x="240" y="98" width="60" height="26" fill="#fff"     stroke="#2e7d32"/><text x="270" y="116" fill="#222">1.1</text>
      <!-- row 4 -->
      <rect x="0"   y="124" width="60" height="26" fill="#fff"     stroke="#2e7d32"/><text x="30"  y="142" fill="#222">1.7</text>
      <rect x="60"  y="124" width="60" height="26" fill="#fff"     stroke="#2e7d32"/><text x="90"  y="142" fill="#222">1.4</text>
      <rect x="120" y="124" width="60" height="26" fill="#fff"     stroke="#2e7d32"/><text x="150" y="142" fill="#222">0.4</text>
      <rect x="180" y="124" width="60" height="26" fill="#fff"     stroke="#2e7d32"/><text x="210" y="142" fill="#222">1.1</text>
      <rect x="240" y="124" width="60" height="26" fill="#e8f5e9" stroke="#2e7d32"/><text x="270" y="142" fill="#1b5e20">0.0</text>
    </g>
  </g>

  <!-- ============== Bottom-left: adjacency matrix ============== -->
  <g transform="translate(60,290)">
    <text x="180" y="-10" text-anchor="middle" font-size="15" font-weight="600" fill="#d97706">adjacency matrix</text>
    <text x="180" y="8" text-anchor="middle" font-size="13" fill="#555">graph edges — 0/1 entries</text>

    <g font-family="ui-monospace, monospace" font-size="12" text-anchor="middle">
      <!-- 6x6 cells 28 wide, 24 high. Set of 1s -->
      <!-- helper: rows -->
      <!-- pattern: edges (0,2)(0,4)(1,3)(2,0)(2,5)(3,1)(3,4)(4,0)(4,3)(5,2) -->
      <!-- row 0 -->
      <rect x="0"   y="20" width="28" height="24" fill="#f5f5f5" stroke="#bbb"/><text x="14" y="37" fill="#888">0</text>
      <rect x="28"  y="20" width="28" height="24" fill="#f5f5f5" stroke="#bbb"/><text x="42" y="37" fill="#888">0</text>
      <rect x="56"  y="20" width="28" height="24" fill="#fff3cd" stroke="#d97706"/><text x="70" y="37" fill="#7a3d00">1</text>
      <rect x="84"  y="20" width="28" height="24" fill="#f5f5f5" stroke="#bbb"/><text x="98" y="37" fill="#888">0</text>
      <rect x="112" y="20" width="28" height="24" fill="#fff3cd" stroke="#d97706"/><text x="126" y="37" fill="#7a3d00">1</text>
      <rect x="140" y="20" width="28" height="24" fill="#f5f5f5" stroke="#bbb"/><text x="154" y="37" fill="#888">0</text>
      <!-- row 1 -->
      <rect x="0"   y="44" width="28" height="24" fill="#f5f5f5" stroke="#bbb"/><text x="14" y="61" fill="#888">0</text>
      <rect x="28"  y="44" width="28" height="24" fill="#f5f5f5" stroke="#bbb"/><text x="42" y="61" fill="#888">0</text>
      <rect x="56"  y="44" width="28" height="24" fill="#f5f5f5" stroke="#bbb"/><text x="70" y="61" fill="#888">0</text>
      <rect x="84"  y="44" width="28" height="24" fill="#fff3cd" stroke="#d97706"/><text x="98" y="61" fill="#7a3d00">1</text>
      <rect x="112" y="44" width="28" height="24" fill="#f5f5f5" stroke="#bbb"/><text x="126" y="61" fill="#888">0</text>
      <rect x="140" y="44" width="28" height="24" fill="#f5f5f5" stroke="#bbb"/><text x="154" y="61" fill="#888">0</text>
      <!-- row 2 -->
      <rect x="0"   y="68" width="28" height="24" fill="#fff3cd" stroke="#d97706"/><text x="14" y="85" fill="#7a3d00">1</text>
      <rect x="28"  y="68" width="28" height="24" fill="#f5f5f5" stroke="#bbb"/><text x="42" y="85" fill="#888">0</text>
      <rect x="56"  y="68" width="28" height="24" fill="#f5f5f5" stroke="#bbb"/><text x="70" y="85" fill="#888">0</text>
      <rect x="84"  y="68" width="28" height="24" fill="#f5f5f5" stroke="#bbb"/><text x="98" y="85" fill="#888">0</text>
      <rect x="112" y="68" width="28" height="24" fill="#f5f5f5" stroke="#bbb"/><text x="126" y="85" fill="#888">0</text>
      <rect x="140" y="68" width="28" height="24" fill="#fff3cd" stroke="#d97706"/><text x="154" y="85" fill="#7a3d00">1</text>
      <!-- row 3 -->
      <rect x="0"   y="92" width="28" height="24" fill="#f5f5f5" stroke="#bbb"/><text x="14" y="109" fill="#888">0</text>
      <rect x="28"  y="92" width="28" height="24" fill="#fff3cd" stroke="#d97706"/><text x="42" y="109" fill="#7a3d00">1</text>
      <rect x="56"  y="92" width="28" height="24" fill="#f5f5f5" stroke="#bbb"/><text x="70" y="109" fill="#888">0</text>
      <rect x="84"  y="92" width="28" height="24" fill="#f5f5f5" stroke="#bbb"/><text x="98" y="109" fill="#888">0</text>
      <rect x="112" y="92" width="28" height="24" fill="#fff3cd" stroke="#d97706"/><text x="126" y="109" fill="#7a3d00">1</text>
      <rect x="140" y="92" width="28" height="24" fill="#f5f5f5" stroke="#bbb"/><text x="154" y="109" fill="#888">0</text>
      <!-- row 4 -->
      <rect x="0"   y="116" width="28" height="24" fill="#fff3cd" stroke="#d97706"/><text x="14" y="133" fill="#7a3d00">1</text>
      <rect x="28"  y="116" width="28" height="24" fill="#f5f5f5" stroke="#bbb"/><text x="42" y="133" fill="#888">0</text>
      <rect x="56"  y="116" width="28" height="24" fill="#f5f5f5" stroke="#bbb"/><text x="70" y="133" fill="#888">0</text>
      <rect x="84"  y="116" width="28" height="24" fill="#fff3cd" stroke="#d97706"/><text x="98" y="133" fill="#7a3d00">1</text>
      <rect x="112" y="116" width="28" height="24" fill="#f5f5f5" stroke="#bbb"/><text x="126" y="133" fill="#888">0</text>
      <rect x="140" y="116" width="28" height="24" fill="#f5f5f5" stroke="#bbb"/><text x="154" y="133" fill="#888">0</text>
      <!-- row 5 -->
      <rect x="0"   y="140" width="28" height="24" fill="#f5f5f5" stroke="#bbb"/><text x="14" y="157" fill="#888">0</text>
      <rect x="28"  y="140" width="28" height="24" fill="#f5f5f5" stroke="#bbb"/><text x="42" y="157" fill="#888">0</text>
      <rect x="56"  y="140" width="28" height="24" fill="#fff3cd" stroke="#d97706"/><text x="70" y="157" fill="#7a3d00">1</text>
      <rect x="84"  y="140" width="28" height="24" fill="#f5f5f5" stroke="#bbb"/><text x="98" y="157" fill="#888">0</text>
      <rect x="112" y="140" width="28" height="24" fill="#f5f5f5" stroke="#bbb"/><text x="126" y="157" fill="#888">0</text>
      <rect x="140" y="140" width="28" height="24" fill="#f5f5f5" stroke="#bbb"/><text x="154" y="157" fill="#888">0</text>
    </g>
  </g>

  <!-- ============== Bottom-right: BLOSUM62-like ============== -->
  <g transform="translate(520,290)">
    <text x="160" y="-10" text-anchor="middle" font-size="15" font-weight="600" fill="#c62828">BLOSUM62</text>
    <text x="160" y="8" text-anchor="middle" font-size="13" fill="#555">20 x 20 amino-acid substitution scores</text>

    <!-- Draw a 10x10 stylised heatmap as preview (cell 28 x 14) -->
    <g font-family="ui-monospace, monospace" font-size="9" text-anchor="middle">
      <!-- generate via repeated patterns to keep it simple; diagonal positive, off neg -->
      <!-- diagonal cells (green-ish), upper/lower mostly red/grey -->
      <g>
        <!-- Programmatic-like rows: use 10 columns and 10 rows -->
        <!-- row 0 -->
        <rect x="0"   y="20" width="28" height="18" fill="#2e7d32" stroke="#1b5e20"/><text x="14"  y="33" fill="#fff">+4</text>
        <rect x="28"  y="20" width="28" height="18" fill="#fbe9e7" stroke="#888"/><text x="42"  y="33" fill="#c62828">-1</text>
        <rect x="56"  y="20" width="28" height="18" fill="#fbe9e7" stroke="#888"/><text x="70"  y="33" fill="#c62828">-2</text>
        <rect x="84"  y="20" width="28" height="18" fill="#fbe9e7" stroke="#888"/><text x="98"  y="33" fill="#c62828">-2</text>
        <rect x="112" y="20" width="28" height="18" fill="#f5f5f5" stroke="#bbb"/><text x="126" y="33" fill="#222">0</text>
        <rect x="140" y="20" width="28" height="18" fill="#fbe9e7" stroke="#888"/><text x="154" y="33" fill="#c62828">-1</text>
        <rect x="168" y="20" width="28" height="18" fill="#fbe9e7" stroke="#888"/><text x="182" y="33" fill="#c62828">-1</text>
        <rect x="196" y="20" width="28" height="18" fill="#f5f5f5" stroke="#bbb"/><text x="210" y="33" fill="#222">0</text>
        <rect x="224" y="20" width="28" height="18" fill="#fbe9e7" stroke="#888"/><text x="238" y="33" fill="#c62828">-2</text>
        <rect x="252" y="20" width="28" height="18" fill="#fbe9e7" stroke="#888"/><text x="266" y="33" fill="#c62828">-1</text>
        <!-- row 1 -->
        <rect x="0"   y="38" width="28" height="18" fill="#fbe9e7" stroke="#888"/><text x="14"  y="51" fill="#c62828">-1</text>
        <rect x="28"  y="38" width="28" height="18" fill="#2e7d32" stroke="#1b5e20"/><text x="42"  y="51" fill="#fff">+5</text>
        <rect x="56"  y="38" width="28" height="18" fill="#f5f5f5" stroke="#bbb"/><text x="70"  y="51" fill="#222">0</text>
        <rect x="84"  y="38" width="28" height="18" fill="#fbe9e7" stroke="#888"/><text x="98"  y="51" fill="#c62828">-2</text>
        <rect x="112" y="38" width="28" height="18" fill="#fbe9e7" stroke="#888"/><text x="126" y="51" fill="#c62828">-3</text>
        <rect x="140" y="38" width="28" height="18" fill="#a5d6a7" stroke="#2e7d32"/><text x="154" y="51" fill="#1b5e20">+1</text>
        <rect x="168" y="38" width="28" height="18" fill="#f5f5f5" stroke="#bbb"/><text x="182" y="51" fill="#222">0</text>
        <rect x="196" y="38" width="28" height="18" fill="#fbe9e7" stroke="#888"/><text x="210" y="51" fill="#c62828">-2</text>
        <rect x="224" y="38" width="28" height="18" fill="#f5f5f5" stroke="#bbb"/><text x="238" y="51" fill="#222">0</text>
        <rect x="252" y="38" width="28" height="18" fill="#fbe9e7" stroke="#888"/><text x="266" y="51" fill="#c62828">-3</text>
        <!-- row 2 -->
        <rect x="0"   y="56" width="28" height="18" fill="#fbe9e7" stroke="#888"/><text x="14"  y="69" fill="#c62828">-2</text>
        <rect x="28"  y="56" width="28" height="18" fill="#f5f5f5" stroke="#bbb"/><text x="42"  y="69" fill="#222">0</text>
        <rect x="56"  y="56" width="28" height="18" fill="#2e7d32" stroke="#1b5e20"/><text x="70"  y="69" fill="#fff">+6</text>
        <rect x="84"  y="56" width="28" height="18" fill="#a5d6a7" stroke="#2e7d32"/><text x="98"  y="69" fill="#1b5e20">+1</text>
        <rect x="112" y="56" width="28" height="18" fill="#fbe9e7" stroke="#888"/><text x="126" y="69" fill="#c62828">-3</text>
        <rect x="140" y="56" width="28" height="18" fill="#f5f5f5" stroke="#bbb"/><text x="154" y="69" fill="#222">0</text>
        <rect x="168" y="56" width="28" height="18" fill="#f5f5f5" stroke="#bbb"/><text x="182" y="69" fill="#222">0</text>
        <rect x="196" y="56" width="28" height="18" fill="#f5f5f5" stroke="#bbb"/><text x="210" y="69" fill="#222">0</text>
        <rect x="224" y="56" width="28" height="18" fill="#a5d6a7" stroke="#2e7d32"/><text x="238" y="69" fill="#1b5e20">+1</text>
        <rect x="252" y="56" width="28" height="18" fill="#fbe9e7" stroke="#888"/><text x="266" y="69" fill="#c62828">-3</text>
        <!-- row 3 -->
        <rect x="0"   y="74" width="28" height="18" fill="#fbe9e7" stroke="#888"/><text x="14"  y="87" fill="#c62828">-2</text>
        <rect x="28"  y="74" width="28" height="18" fill="#fbe9e7" stroke="#888"/><text x="42"  y="87" fill="#c62828">-2</text>
        <rect x="56"  y="74" width="28" height="18" fill="#a5d6a7" stroke="#2e7d32"/><text x="70"  y="87" fill="#1b5e20">+1</text>
        <rect x="84"  y="74" width="28" height="18" fill="#2e7d32" stroke="#1b5e20"/><text x="98"  y="87" fill="#fff">+6</text>
        <rect x="112" y="74" width="28" height="18" fill="#fbe9e7" stroke="#888"/><text x="126" y="87" fill="#c62828">-3</text>
        <rect x="140" y="74" width="28" height="18" fill="#f5f5f5" stroke="#bbb"/><text x="154" y="87" fill="#222">0</text>
        <rect x="168" y="74" width="28" height="18" fill="#a5d6a7" stroke="#2e7d32"/><text x="182" y="87" fill="#1b5e20">+2</text>
        <rect x="196" y="74" width="28" height="18" fill="#fbe9e7" stroke="#888"/><text x="210" y="87" fill="#c62828">-1</text>
        <rect x="224" y="74" width="28" height="18" fill="#f5f5f5" stroke="#bbb"/><text x="238" y="87" fill="#222">0</text>
        <rect x="252" y="74" width="28" height="18" fill="#fbe9e7" stroke="#888"/><text x="266" y="87" fill="#c62828">-3</text>
        <!-- row 4 -->
        <rect x="0"   y="92" width="28" height="18" fill="#f5f5f5" stroke="#bbb"/><text x="14"  y="105" fill="#222">0</text>
        <rect x="28"  y="92" width="28" height="18" fill="#fbe9e7" stroke="#888"/><text x="42"  y="105" fill="#c62828">-3</text>
        <rect x="56"  y="92" width="28" height="18" fill="#fbe9e7" stroke="#888"/><text x="70"  y="105" fill="#c62828">-3</text>
        <rect x="84"  y="92" width="28" height="18" fill="#fbe9e7" stroke="#888"/><text x="98"  y="105" fill="#c62828">-3</text>
        <rect x="112" y="92" width="28" height="18" fill="#2e7d32" stroke="#1b5e20"/><text x="126" y="105" fill="#fff">+9</text>
        <rect x="140" y="92" width="28" height="18" fill="#fbe9e7" stroke="#888"/><text x="154" y="105" fill="#c62828">-3</text>
        <rect x="168" y="92" width="28" height="18" fill="#fbe9e7" stroke="#888"/><text x="182" y="105" fill="#c62828">-4</text>
        <rect x="196" y="92" width="28" height="18" fill="#fbe9e7" stroke="#888"/><text x="210" y="105" fill="#c62828">-3</text>
        <rect x="224" y="92" width="28" height="18" fill="#fbe9e7" stroke="#888"/><text x="238" y="105" fill="#c62828">-3</text>
        <rect x="252" y="92" width="28" height="18" fill="#fbe9e7" stroke="#888"/><text x="266" y="105" fill="#c62828">-1</text>
        <!-- row 5 -->
        <rect x="0"   y="110" width="28" height="18" fill="#fbe9e7" stroke="#888"/><text x="14"  y="123" fill="#c62828">-1</text>
        <rect x="28"  y="110" width="28" height="18" fill="#a5d6a7" stroke="#2e7d32"/><text x="42"  y="123" fill="#1b5e20">+1</text>
        <rect x="56"  y="110" width="28" height="18" fill="#f5f5f5" stroke="#bbb"/><text x="70"  y="123" fill="#222">0</text>
        <rect x="84"  y="110" width="28" height="18" fill="#f5f5f5" stroke="#bbb"/><text x="98"  y="123" fill="#222">0</text>
        <rect x="112" y="110" width="28" height="18" fill="#fbe9e7" stroke="#888"/><text x="126" y="123" fill="#c62828">-3</text>
        <rect x="140" y="110" width="28" height="18" fill="#2e7d32" stroke="#1b5e20"/><text x="154" y="123" fill="#fff">+5</text>
        <rect x="168" y="110" width="28" height="18" fill="#a5d6a7" stroke="#2e7d32"/><text x="182" y="123" fill="#1b5e20">+2</text>
        <rect x="196" y="110" width="28" height="18" fill="#fbe9e7" stroke="#888"/><text x="210" y="123" fill="#c62828">-2</text>
        <rect x="224" y="110" width="28" height="18" fill="#f5f5f5" stroke="#bbb"/><text x="238" y="123" fill="#222">0</text>
        <rect x="252" y="110" width="28" height="18" fill="#fbe9e7" stroke="#888"/><text x="266" y="123" fill="#c62828">-2</text>
        <!-- row 6 -->
        <rect x="0"   y="128" width="28" height="18" fill="#fbe9e7" stroke="#888"/><text x="14"  y="141" fill="#c62828">-1</text>
        <rect x="28"  y="128" width="28" height="18" fill="#f5f5f5" stroke="#bbb"/><text x="42"  y="141" fill="#222">0</text>
        <rect x="56"  y="128" width="28" height="18" fill="#f5f5f5" stroke="#bbb"/><text x="70"  y="141" fill="#222">0</text>
        <rect x="84"  y="128" width="28" height="18" fill="#a5d6a7" stroke="#2e7d32"/><text x="98"  y="141" fill="#1b5e20">+2</text>
        <rect x="112" y="128" width="28" height="18" fill="#fbe9e7" stroke="#888"/><text x="126" y="141" fill="#c62828">-4</text>
        <rect x="140" y="128" width="28" height="18" fill="#a5d6a7" stroke="#2e7d32"/><text x="154" y="141" fill="#1b5e20">+2</text>
        <rect x="168" y="128" width="28" height="18" fill="#2e7d32" stroke="#1b5e20"/><text x="182" y="141" fill="#fff">+5</text>
        <rect x="196" y="128" width="28" height="18" fill="#fbe9e7" stroke="#888"/><text x="210" y="141" fill="#c62828">-2</text>
        <rect x="224" y="128" width="28" height="18" fill="#f5f5f5" stroke="#bbb"/><text x="238" y="141" fill="#222">0</text>
        <rect x="252" y="128" width="28" height="18" fill="#fbe9e7" stroke="#888"/><text x="266" y="141" fill="#c62828">-2</text>
        <!-- row 7 -->
        <rect x="0"   y="146" width="28" height="18" fill="#f5f5f5" stroke="#bbb"/><text x="14"  y="159" fill="#222">0</text>
        <rect x="28"  y="146" width="28" height="18" fill="#fbe9e7" stroke="#888"/><text x="42"  y="159" fill="#c62828">-2</text>
        <rect x="56"  y="146" width="28" height="18" fill="#f5f5f5" stroke="#bbb"/><text x="70"  y="159" fill="#222">0</text>
        <rect x="84"  y="146" width="28" height="18" fill="#fbe9e7" stroke="#888"/><text x="98"  y="159" fill="#c62828">-1</text>
        <rect x="112" y="146" width="28" height="18" fill="#fbe9e7" stroke="#888"/><text x="126" y="159" fill="#c62828">-3</text>
        <rect x="140" y="146" width="28" height="18" fill="#fbe9e7" stroke="#888"/><text x="154" y="159" fill="#c62828">-2</text>
        <rect x="168" y="146" width="28" height="18" fill="#fbe9e7" stroke="#888"/><text x="182" y="159" fill="#c62828">-2</text>
        <rect x="196" y="146" width="28" height="18" fill="#2e7d32" stroke="#1b5e20"/><text x="210" y="159" fill="#fff">+6</text>
        <rect x="224" y="146" width="28" height="18" fill="#fbe9e7" stroke="#888"/><text x="238" y="159" fill="#c62828">-2</text>
        <rect x="252" y="146" width="28" height="18" fill="#fbe9e7" stroke="#888"/><text x="266" y="159" fill="#c62828">-3</text>
      </g>
    </g>
  </g>

</svg>
