<?xml version="1.0" encoding="UTF-8"?>
<svg xmlns="http://www.w3.org/2000/svg" viewBox="0 0 1200 360" font-family="system-ui, -apple-system, sans-serif">
  <title>Cache locality — same matrix, four access patterns</title>

  <text x="600" y="22" text-anchor="middle" font-size="18" font-weight="600" fill="#111">Cache locality — same matrix, four access patterns</text>

  <!-- =================== Panel 1: Row-major, read row 1 (FAST) =================== -->
  <g transform="translate(10,50)">
    <text x="140" y="0" text-anchor="middle" font-size="13" font-weight="600" fill="#1976d2">Row-major, read row 1</text>

    <!-- 4x4 matrix, cell 30x26, at (30, 15) -->
    <g font-family="ui-monospace, monospace" font-size="11" text-anchor="middle">
      <!-- Row 0 -->
      <rect x="30"  y="15" width="30" height="26" fill="#f5f5f5" stroke="#bbb"/>
      <rect x="60"  y="15" width="30" height="26" fill="#f5f5f5" stroke="#bbb"/>
      <rect x="90"  y="15" width="30" height="26" fill="#f5f5f5" stroke="#bbb"/>
      <rect x="120" y="15" width="30" height="26" fill="#f5f5f5" stroke="#bbb"/>
      <!-- Row 1 highlighted blue -->
      <rect x="30"  y="41" width="30" height="26" fill="#bbdefb" stroke="#1976d2"/>
      <rect x="60"  y="41" width="30" height="26" fill="#bbdefb" stroke="#1976d2"/>
      <rect x="90"  y="41" width="30" height="26" fill="#bbdefb" stroke="#1976d2"/>
      <rect x="120" y="41" width="30" height="26" fill="#bbdefb" stroke="#1976d2"/>
      <!-- Row 2 -->
      <rect x="30"  y="67" width="30" height="26" fill="#f5f5f5" stroke="#bbb"/>
      <rect x="60"  y="67" width="30" height="26" fill="#f5f5f5" stroke="#bbb"/>
      <rect x="90"  y="67" width="30" height="26" fill="#f5f5f5" stroke="#bbb"/>
      <rect x="120" y="67" width="30" height="26" fill="#f5f5f5" stroke="#bbb"/>
      <!-- Row 3 -->
      <rect x="30"  y="93" width="30" height="26" fill="#f5f5f5" stroke="#bbb"/>
      <rect x="60"  y="93" width="30" height="26" fill="#f5f5f5" stroke="#bbb"/>
      <rect x="90"  y="93" width="30" height="26" fill="#f5f5f5" stroke="#bbb"/>
      <rect x="120" y="93" width="30" height="26" fill="#f5f5f5" stroke="#bbb"/>
    </g>

    <g font-family="ui-monospace, monospace" font-size="10" fill="#888" text-anchor="end">
      <text x="26" y="31">0</text>
      <text x="26" y="57">1</text>
      <text x="26" y="83">2</text>
      <text x="26" y="109">3</text>
    </g>

    <!-- Memory strip: 16 cells of width 16, at y=160 -->
    <text x="30" y="155" font-family="system-ui, -apple-system, sans-serif" font-size="11" fill="#555">memory:</text>
    <g font-family="ui-monospace, monospace" font-size="9" text-anchor="middle">
      <rect x="30"  y="165" width="16" height="20" fill="#f5f5f5" stroke="#bbb"/>
      <rect x="46"  y="165" width="16" height="20" fill="#f5f5f5" stroke="#bbb"/>
      <rect x="62"  y="165" width="16" height="20" fill="#f5f5f5" stroke="#bbb"/>
      <rect x="78"  y="165" width="16" height="20" fill="#f5f5f5" stroke="#bbb"/>
      <rect x="94"  y="165" width="16" height="20" fill="#bbdefb" stroke="#1976d2"/>
      <rect x="110" y="165" width="16" height="20" fill="#bbdefb" stroke="#1976d2"/>
      <rect x="126" y="165" width="16" height="20" fill="#bbdefb" stroke="#1976d2"/>
      <rect x="142" y="165" width="16" height="20" fill="#bbdefb" stroke="#1976d2"/>
      <rect x="158" y="165" width="16" height="20" fill="#f5f5f5" stroke="#bbb"/>
      <rect x="174" y="165" width="16" height="20" fill="#f5f5f5" stroke="#bbb"/>
      <rect x="190" y="165" width="16" height="20" fill="#f5f5f5" stroke="#bbb"/>
      <rect x="206" y="165" width="16" height="20" fill="#f5f5f5" stroke="#bbb"/>
      <rect x="222" y="165" width="16" height="20" fill="#f5f5f5" stroke="#bbb"/>
      <rect x="238" y="165" width="16" height="20" fill="#f5f5f5" stroke="#bbb"/>
      <rect x="254" y="165" width="16" height="20" fill="#f5f5f5" stroke="#bbb"/>
      <rect x="270" y="165" width="16" height="20" fill="#f5f5f5" stroke="#bbb"/>
    </g>
    <g font-family="ui-monospace, monospace" font-size="8" fill="#888" text-anchor="middle">
      <text x="38"  y="198">0</text>
      <text x="54"  y="198">1</text>
      <text x="70"  y="198">2</text>
      <text x="86"  y="198">3</text>
      <text x="102" y="198">4</text>
      <text x="118" y="198">5</text>
      <text x="134" y="198">6</text>
      <text x="150" y="198">7</text>
      <text x="166" y="198">8</text>
      <text x="182" y="198">9</text>
      <text x="198" y="198">10</text>
      <text x="214" y="198">11</text>
      <text x="230" y="198">12</text>
      <text x="246" y="198">13</text>
      <text x="262" y="198">14</text>
      <text x="278" y="198">15</text>
    </g>

    <text x="155" y="240" text-anchor="middle" font-size="14" fill="#2e7d32" font-weight="700">
      contiguous → FAST
    </text>
  </g>

  <!-- =================== Panel 2: Row-major, read column 1 (SLOW) =================== -->
  <g transform="translate(310,50)">
    <text x="140" y="0" text-anchor="middle" font-size="13" font-weight="600" fill="#d97706">Row-major, read column 1</text>

    <g font-family="ui-monospace, monospace" font-size="11" text-anchor="middle">
      <!-- Row 0 -->
      <rect x="30"  y="15" width="30" height="26" fill="#f5f5f5" stroke="#bbb"/>
      <rect x="60"  y="15" width="30" height="26" fill="#ffe0b2" stroke="#d97706"/>
      <rect x="90"  y="15" width="30" height="26" fill="#f5f5f5" stroke="#bbb"/>
      <rect x="120" y="15" width="30" height="26" fill="#f5f5f5" stroke="#bbb"/>
      <!-- Row 1 -->
      <rect x="30"  y="41" width="30" height="26" fill="#f5f5f5" stroke="#bbb"/>
      <rect x="60"  y="41" width="30" height="26" fill="#ffe0b2" stroke="#d97706"/>
      <rect x="90"  y="41" width="30" height="26" fill="#f5f5f5" stroke="#bbb"/>
      <rect x="120" y="41" width="30" height="26" fill="#f5f5f5" stroke="#bbb"/>
      <!-- Row 2 -->
      <rect x="30"  y="67" width="30" height="26" fill="#f5f5f5" stroke="#bbb"/>
      <rect x="60"  y="67" width="30" height="26" fill="#ffe0b2" stroke="#d97706"/>
      <rect x="90"  y="67" width="30" height="26" fill="#f5f5f5" stroke="#bbb"/>
      <rect x="120" y="67" width="30" height="26" fill="#f5f5f5" stroke="#bbb"/>
      <!-- Row 3 -->
      <rect x="30"  y="93" width="30" height="26" fill="#f5f5f5" stroke="#bbb"/>
      <rect x="60"  y="93" width="30" height="26" fill="#ffe0b2" stroke="#d97706"/>
      <rect x="90"  y="93" width="30" height="26" fill="#f5f5f5" stroke="#bbb"/>
      <rect x="120" y="93" width="30" height="26" fill="#f5f5f5" stroke="#bbb"/>
    </g>

    <g font-family="ui-monospace, monospace" font-size="10" fill="#888" text-anchor="middle">
      <text x="45"  y="10">0</text>
      <text x="75"  y="10">1</text>
      <text x="105" y="10">2</text>
      <text x="135" y="10">3</text>
    </g>

    <text x="30" y="155" font-family="system-ui, -apple-system, sans-serif" font-size="11" fill="#555">memory:</text>
    <g font-family="ui-monospace, monospace" font-size="9" text-anchor="middle">
      <rect x="30"  y="165" width="16" height="20" fill="#f5f5f5" stroke="#bbb"/>
      <rect x="46"  y="165" width="16" height="20" fill="#ffe0b2" stroke="#d97706"/>
      <rect x="62"  y="165" width="16" height="20" fill="#f5f5f5" stroke="#bbb"/>
      <rect x="78"  y="165" width="16" height="20" fill="#f5f5f5" stroke="#bbb"/>
      <rect x="94"  y="165" width="16" height="20" fill="#f5f5f5" stroke="#bbb"/>
      <rect x="110" y="165" width="16" height="20" fill="#ffe0b2" stroke="#d97706"/>
      <rect x="126" y="165" width="16" height="20" fill="#f5f5f5" stroke="#bbb"/>
      <rect x="142" y="165" width="16" height="20" fill="#f5f5f5" stroke="#bbb"/>
      <rect x="158" y="165" width="16" height="20" fill="#f5f5f5" stroke="#bbb"/>
      <rect x="174" y="165" width="16" height="20" fill="#ffe0b2" stroke="#d97706"/>
      <rect x="190" y="165" width="16" height="20" fill="#f5f5f5" stroke="#bbb"/>
      <rect x="206" y="165" width="16" height="20" fill="#f5f5f5" stroke="#bbb"/>
      <rect x="222" y="165" width="16" height="20" fill="#f5f5f5" stroke="#bbb"/>
      <rect x="238" y="165" width="16" height="20" fill="#ffe0b2" stroke="#d97706"/>
      <rect x="254" y="165" width="16" height="20" fill="#f5f5f5" stroke="#bbb"/>
      <rect x="270" y="165" width="16" height="20" fill="#f5f5f5" stroke="#bbb"/>
    </g>
    <g font-family="ui-monospace, monospace" font-size="8" fill="#888" text-anchor="middle">
      <text x="38"  y="198">0</text>
      <text x="54"  y="198">1</text>
      <text x="70"  y="198">2</text>
      <text x="86"  y="198">3</text>
      <text x="102" y="198">4</text>
      <text x="118" y="198">5</text>
      <text x="134" y="198">6</text>
      <text x="150" y="198">7</text>
      <text x="166" y="198">8</text>
      <text x="182" y="198">9</text>
      <text x="198" y="198">10</text>
      <text x="214" y="198">11</text>
      <text x="230" y="198">12</text>
      <text x="246" y="198">13</text>
      <text x="262" y="198">14</text>
      <text x="278" y="198">15</text>
    </g>

    <text x="155" y="240" text-anchor="middle" font-size="14" fill="#c62828" font-weight="700">
      scattered → SLOW
    </text>
  </g>

  <!-- =================== Panel 3: Column-major, read row 1 (SLOW) =================== -->
  <g transform="translate(610,50)">
    <text x="140" y="0" text-anchor="middle" font-size="13" font-weight="600" fill="#d97706">Column-major, read row 1</text>

    <g font-family="ui-monospace, monospace" font-size="11" text-anchor="middle">
      <rect x="30"  y="15" width="30" height="26" fill="#f5f5f5" stroke="#bbb"/>
      <rect x="60"  y="15" width="30" height="26" fill="#f5f5f5" stroke="#bbb"/>
      <rect x="90"  y="15" width="30" height="26" fill="#f5f5f5" stroke="#bbb"/>
      <rect x="120" y="15" width="30" height="26" fill="#f5f5f5" stroke="#bbb"/>
      <rect x="30"  y="41" width="30" height="26" fill="#ffe0b2" stroke="#d97706"/>
      <rect x="60"  y="41" width="30" height="26" fill="#ffe0b2" stroke="#d97706"/>
      <rect x="90"  y="41" width="30" height="26" fill="#ffe0b2" stroke="#d97706"/>
      <rect x="120" y="41" width="30" height="26" fill="#ffe0b2" stroke="#d97706"/>
      <rect x="30"  y="67" width="30" height="26" fill="#f5f5f5" stroke="#bbb"/>
      <rect x="60"  y="67" width="30" height="26" fill="#f5f5f5" stroke="#bbb"/>
      <rect x="90"  y="67" width="30" height="26" fill="#f5f5f5" stroke="#bbb"/>
      <rect x="120" y="67" width="30" height="26" fill="#f5f5f5" stroke="#bbb"/>
      <rect x="30"  y="93" width="30" height="26" fill="#f5f5f5" stroke="#bbb"/>
      <rect x="60"  y="93" width="30" height="26" fill="#f5f5f5" stroke="#bbb"/>
      <rect x="90"  y="93" width="30" height="26" fill="#f5f5f5" stroke="#bbb"/>
      <rect x="120" y="93" width="30" height="26" fill="#f5f5f5" stroke="#bbb"/>
    </g>

    <g font-family="ui-monospace, monospace" font-size="10" fill="#888" text-anchor="end">
      <text x="26" y="31">0</text>
      <text x="26" y="57">1</text>
      <text x="26" y="83">2</text>
      <text x="26" y="109">3</text>
    </g>

    <text x="30" y="155" font-family="system-ui, -apple-system, sans-serif" font-size="11" fill="#555">memory:</text>
    <g font-family="ui-monospace, monospace" font-size="9" text-anchor="middle">
      <rect x="30"  y="165" width="16" height="20" fill="#f5f5f5" stroke="#bbb"/>
      <rect x="46"  y="165" width="16" height="20" fill="#ffe0b2" stroke="#d97706"/>
      <rect x="62"  y="165" width="16" height="20" fill="#f5f5f5" stroke="#bbb"/>
      <rect x="78"  y="165" width="16" height="20" fill="#f5f5f5" stroke="#bbb"/>
      <rect x="94"  y="165" width="16" height="20" fill="#f5f5f5" stroke="#bbb"/>
      <rect x="110" y="165" width="16" height="20" fill="#ffe0b2" stroke="#d97706"/>
      <rect x="126" y="165" width="16" height="20" fill="#f5f5f5" stroke="#bbb"/>
      <rect x="142" y="165" width="16" height="20" fill="#f5f5f5" stroke="#bbb"/>
      <rect x="158" y="165" width="16" height="20" fill="#f5f5f5" stroke="#bbb"/>
      <rect x="174" y="165" width="16" height="20" fill="#ffe0b2" stroke="#d97706"/>
      <rect x="190" y="165" width="16" height="20" fill="#f5f5f5" stroke="#bbb"/>
      <rect x="206" y="165" width="16" height="20" fill="#f5f5f5" stroke="#bbb"/>
      <rect x="222" y="165" width="16" height="20" fill="#f5f5f5" stroke="#bbb"/>
      <rect x="238" y="165" width="16" height="20" fill="#ffe0b2" stroke="#d97706"/>
      <rect x="254" y="165" width="16" height="20" fill="#f5f5f5" stroke="#bbb"/>
      <rect x="270" y="165" width="16" height="20" fill="#f5f5f5" stroke="#bbb"/>
    </g>
    <g font-family="ui-monospace, monospace" font-size="8" fill="#888" text-anchor="middle">
      <text x="38"  y="198">0</text>
      <text x="54"  y="198">1</text>
      <text x="70"  y="198">2</text>
      <text x="86"  y="198">3</text>
      <text x="102" y="198">4</text>
      <text x="118" y="198">5</text>
      <text x="134" y="198">6</text>
      <text x="150" y="198">7</text>
      <text x="166" y="198">8</text>
      <text x="182" y="198">9</text>
      <text x="198" y="198">10</text>
      <text x="214" y="198">11</text>
      <text x="230" y="198">12</text>
      <text x="246" y="198">13</text>
      <text x="262" y="198">14</text>
      <text x="278" y="198">15</text>
    </g>

    <text x="155" y="240" text-anchor="middle" font-size="14" fill="#c62828" font-weight="700">
      scattered → SLOW
    </text>
  </g>

  <!-- =================== Panel 4: Column-major, read column 1 (FAST) =================== -->
  <g transform="translate(910,50)">
    <text x="140" y="0" text-anchor="middle" font-size="13" font-weight="600" fill="#1976d2">Column-major, read column 1</text>

    <g font-family="ui-monospace, monospace" font-size="11" text-anchor="middle">
      <rect x="30"  y="15" width="30" height="26" fill="#f5f5f5" stroke="#bbb"/>
      <rect x="60"  y="15" width="30" height="26" fill="#bbdefb" stroke="#1976d2"/>
      <rect x="90"  y="15" width="30" height="26" fill="#f5f5f5" stroke="#bbb"/>
      <rect x="120" y="15" width="30" height="26" fill="#f5f5f5" stroke="#bbb"/>
      <rect x="30"  y="41" width="30" height="26" fill="#f5f5f5" stroke="#bbb"/>
      <rect x="60"  y="41" width="30" height="26" fill="#bbdefb" stroke="#1976d2"/>
      <rect x="90"  y="41" width="30" height="26" fill="#f5f5f5" stroke="#bbb"/>
      <rect x="120" y="41" width="30" height="26" fill="#f5f5f5" stroke="#bbb"/>
      <rect x="30"  y="67" width="30" height="26" fill="#f5f5f5" stroke="#bbb"/>
      <rect x="60"  y="67" width="30" height="26" fill="#bbdefb" stroke="#1976d2"/>
      <rect x="90"  y="67" width="30" height="26" fill="#f5f5f5" stroke="#bbb"/>
      <rect x="120" y="67" width="30" height="26" fill="#f5f5f5" stroke="#bbb"/>
      <rect x="30"  y="93" width="30" height="26" fill="#f5f5f5" stroke="#bbb"/>
      <rect x="60"  y="93" width="30" height="26" fill="#bbdefb" stroke="#1976d2"/>
      <rect x="90"  y="93" width="30" height="26" fill="#f5f5f5" stroke="#bbb"/>
      <rect x="120" y="93" width="30" height="26" fill="#f5f5f5" stroke="#bbb"/>
    </g>

    <g font-family="ui-monospace, monospace" font-size="10" fill="#888" text-anchor="middle">
      <text x="45"  y="10">0</text>
      <text x="75"  y="10">1</text>
      <text x="105" y="10">2</text>
      <text x="135" y="10">3</text>
    </g>

    <text x="30" y="155" font-family="system-ui, -apple-system, sans-serif" font-size="11" fill="#555">memory:</text>
    <g font-family="ui-monospace, monospace" font-size="9" text-anchor="middle">
      <rect x="30"  y="165" width="16" height="20" fill="#f5f5f5" stroke="#bbb"/>
      <rect x="46"  y="165" width="16" height="20" fill="#f5f5f5" stroke="#bbb"/>
      <rect x="62"  y="165" width="16" height="20" fill="#f5f5f5" stroke="#bbb"/>
      <rect x="78"  y="165" width="16" height="20" fill="#f5f5f5" stroke="#bbb"/>
      <rect x="94"  y="165" width="16" height="20" fill="#bbdefb" stroke="#1976d2"/>
      <rect x="110" y="165" width="16" height="20" fill="#bbdefb" stroke="#1976d2"/>
      <rect x="126" y="165" width="16" height="20" fill="#bbdefb" stroke="#1976d2"/>
      <rect x="142" y="165" width="16" height="20" fill="#bbdefb" stroke="#1976d2"/>
      <rect x="158" y="165" width="16" height="20" fill="#f5f5f5" stroke="#bbb"/>
      <rect x="174" y="165" width="16" height="20" fill="#f5f5f5" stroke="#bbb"/>
      <rect x="190" y="165" width="16" height="20" fill="#f5f5f5" stroke="#bbb"/>
      <rect x="206" y="165" width="16" height="20" fill="#f5f5f5" stroke="#bbb"/>
      <rect x="222" y="165" width="16" height="20" fill="#f5f5f5" stroke="#bbb"/>
      <rect x="238" y="165" width="16" height="20" fill="#f5f5f5" stroke="#bbb"/>
      <rect x="254" y="165" width="16" height="20" fill="#f5f5f5" stroke="#bbb"/>
      <rect x="270" y="165" width="16" height="20" fill="#f5f5f5" stroke="#bbb"/>
    </g>
    <g font-family="ui-monospace, monospace" font-size="8" fill="#888" text-anchor="middle">
      <text x="38"  y="198">0</text>
      <text x="54"  y="198">1</text>
      <text x="70"  y="198">2</text>
      <text x="86"  y="198">3</text>
      <text x="102" y="198">4</text>
      <text x="118" y="198">5</text>
      <text x="134" y="198">6</text>
      <text x="150" y="198">7</text>
      <text x="166" y="198">8</text>
      <text x="182" y="198">9</text>
      <text x="198" y="198">10</text>
      <text x="214" y="198">11</text>
      <text x="230" y="198">12</text>
      <text x="246" y="198">13</text>
      <text x="262" y="198">14</text>
      <text x="278" y="198">15</text>
    </g>

    <text x="155" y="240" text-anchor="middle" font-size="14" fill="#2e7d32" font-weight="700">
      contiguous → FAST
    </text>
  </g>

  <!-- Rule banner at the bottom -->
  <g transform="translate(0,315)">
    <rect x="250" y="0" width="700" height="36" rx="6" ry="6" fill="#fff3cd" stroke="#d97706" stroke-width="1.5"/>
    <text x="600" y="23" text-anchor="middle" font-size="15" font-weight="600" fill="#7a3d00">
      Rule: iterate in the order memory is laid out.
    </text>
  </g>
</svg>
