<?xml version="1.0" encoding="UTF-8"?>
<svg xmlns="http://www.w3.org/2000/svg" viewBox="0 0 1200 360" font-family="system-ui, -apple-system, sans-serif">
  <title>Bioinformatics matrix examples</title>

  <text x="600" y="26" text-anchor="middle" font-size="20" font-weight="600" fill="#111">Bioinformatics is full of matrices</text>

  <!-- ============== Panel 1: single-cell expression (sparse) ============== -->
  <g transform="translate(20,60)">
    <text x="140" y="0" text-anchor="middle" font-size="14" font-weight="600" fill="#1976d2">single-cell expression</text>
    <text x="140" y="18" text-anchor="middle" font-size="12" fill="#555">genes x cells — mostly zero</text>

    <!-- 5 rows x 6 cols, cell 38 x 38 (matrix area: 228 x 190), centered at x=140 (so x in 26..254) -->
    <g font-family="ui-monospace, monospace" font-size="13" text-anchor="middle">
      <!-- row 0 -->
      <rect x="26"  y="30" width="38" height="38" fill="#f5f5f5" stroke="#bbb"/>
      <rect x="64"  y="30" width="38" height="38" fill="#f5f5f5" stroke="#bbb"/>
      <rect x="102" y="30" width="38" height="38" fill="#1976d2" stroke="#0d47a1"/><text x="121" y="55" fill="#fff">7</text>
      <rect x="140" y="30" width="38" height="38" fill="#f5f5f5" stroke="#bbb"/>
      <rect x="178" y="30" width="38" height="38" fill="#f5f5f5" stroke="#bbb"/>
      <rect x="216" y="30" width="38" height="38" fill="#f5f5f5" stroke="#bbb"/>
      <!-- row 1 -->
      <rect x="26"  y="68" width="38" height="38" fill="#f5f5f5" stroke="#bbb"/>
      <rect x="64"  y="68" width="38" height="38" fill="#1976d2" stroke="#0d47a1"/><text x="83"  y="93" fill="#fff">3</text>
      <rect x="102" y="68" width="38" height="38" fill="#f5f5f5" stroke="#bbb"/>
      <rect x="140" y="68" width="38" height="38" fill="#f5f5f5" stroke="#bbb"/>
      <rect x="178" y="68" width="38" height="38" fill="#90caf9" stroke="#1976d2"/><text x="197" y="93" fill="#0d47a1">1</text>
      <rect x="216" y="68" width="38" height="38" fill="#f5f5f5" stroke="#bbb"/>
      <!-- row 2 -->
      <rect x="26"  y="106" width="38" height="38" fill="#f5f5f5" stroke="#bbb"/>
      <rect x="64"  y="106" width="38" height="38" fill="#f5f5f5" stroke="#bbb"/>
      <rect x="102" y="106" width="38" height="38" fill="#f5f5f5" stroke="#bbb"/>
      <rect x="140" y="106" width="38" height="38" fill="#1976d2" stroke="#0d47a1"/><text x="159" y="131" fill="#fff">5</text>
      <rect x="178" y="106" width="38" height="38" fill="#f5f5f5" stroke="#bbb"/>
      <rect x="216" y="106" width="38" height="38" fill="#90caf9" stroke="#1976d2"/><text x="235" y="131" fill="#0d47a1">2</text>
      <!-- row 3 -->
      <rect x="26"  y="144" width="38" height="38" fill="#f5f5f5" stroke="#bbb"/>
      <rect x="64"  y="144" width="38" height="38" fill="#f5f5f5" stroke="#bbb"/>
      <rect x="102" y="144" width="38" height="38" fill="#f5f5f5" stroke="#bbb"/>
      <rect x="140" y="144" width="38" height="38" fill="#f5f5f5" stroke="#bbb"/>
      <rect x="178" y="144" width="38" height="38" fill="#f5f5f5" stroke="#bbb"/>
      <rect x="216" y="144" width="38" height="38" fill="#f5f5f5" stroke="#bbb"/>
      <!-- row 4 -->
      <rect x="26"  y="182" width="38" height="38" fill="#f5f5f5" stroke="#bbb"/>
      <rect x="64"  y="182" width="38" height="38" fill="#90caf9" stroke="#1976d2"/><text x="83" y="207" fill="#0d47a1">1</text>
      <rect x="102" y="182" width="38" height="38" fill="#f5f5f5" stroke="#bbb"/>
      <rect x="140" y="182" width="38" height="38" fill="#f5f5f5" stroke="#bbb"/>
      <rect x="178" y="182" width="38" height="38" fill="#1976d2" stroke="#0d47a1"/><text x="197" y="207" fill="#fff">4</text>
      <rect x="216" y="182" width="38" height="38" fill="#f5f5f5" stroke="#bbb"/>
    </g>
  </g>

  <!-- ============== Panel 2: pairwise distance matrix (dense symmetric) ============== -->
  <g transform="translate(310,60)">
    <text x="140" y="0" text-anchor="middle" font-size="14" font-weight="600" fill="#2e7d32">pairwise distance matrix</text>
    <text x="140" y="18" text-anchor="middle" font-size="12" fill="#555">symmetric, diagonal zero</text>

    <g font-family="ui-monospace, monospace" font-size="11" text-anchor="middle">
      <!-- 5x5, cell 48 x 38, total 240 x 190, x in 20..260 -->
      <!-- row 0 -->
      <rect x="20"  y="30" width="48" height="38" fill="#e8f5e9" stroke="#2e7d32"/><text x="44"  y="55" fill="#1b5e20">0.0</text>
      <rect x="68"  y="30" width="48" height="38" fill="#fff"     stroke="#2e7d32"/><text x="92"  y="55" fill="#222">0.5</text>
      <rect x="116" y="30" width="48" height="38" fill="#fff"     stroke="#2e7d32"/><text x="140" y="55" fill="#222">1.2</text>
      <rect x="164" y="30" width="48" height="38" fill="#fff"     stroke="#2e7d32"/><text x="188" y="55" fill="#222">0.8</text>
      <rect x="212" y="30" width="48" height="38" fill="#fff"     stroke="#2e7d32"/><text x="236" y="55" fill="#222">1.7</text>
      <!-- row 1 -->
      <rect x="20"  y="68" width="48" height="38" fill="#fff"     stroke="#2e7d32"/><text x="44"  y="93" fill="#222">0.5</text>
      <rect x="68"  y="68" width="48" height="38" fill="#e8f5e9" stroke="#2e7d32"/><text x="92"  y="93" fill="#1b5e20">0.0</text>
      <rect x="116" y="68" width="48" height="38" fill="#fff"     stroke="#2e7d32"/><text x="140" y="93" fill="#222">0.9</text>
      <rect x="164" y="68" width="48" height="38" fill="#fff"     stroke="#2e7d32"/><text x="188" y="93" fill="#222">0.3</text>
      <rect x="212" y="68" width="48" height="38" fill="#fff"     stroke="#2e7d32"/><text x="236" y="93" fill="#222">1.4</text>
      <!-- row 2 -->
      <rect x="20"  y="106" width="48" height="38" fill="#fff"     stroke="#2e7d32"/><text x="44"  y="131" fill="#222">1.2</text>
      <rect x="68"  y="106" width="48" height="38" fill="#fff"     stroke="#2e7d32"/><text x="92"  y="131" fill="#222">0.9</text>
      <rect x="116" y="106" width="48" height="38" fill="#e8f5e9" stroke="#2e7d32"/><text x="140" y="131" fill="#1b5e20">0.0</text>
      <rect x="164" y="106" width="48" height="38" fill="#fff"     stroke="#2e7d32"/><text x="188" y="131" fill="#222">0.6</text>
      <rect x="212" y="106" width="48" height="38" fill="#fff"     stroke="#2e7d32"/><text x="236" y="131" fill="#222">0.4</text>
      <!-- row 3 -->
      <rect x="20"  y="144" width="48" height="38" fill="#fff"     stroke="#2e7d32"/><text x="44"  y="169" fill="#222">0.8</text>
      <rect x="68"  y="144" width="48" height="38" fill="#fff"     stroke="#2e7d32"/><text x="92"  y="169" fill="#222">0.3</text>
      <rect x="116" y="144" width="48" height="38" fill="#fff"     stroke="#2e7d32"/><text x="140" y="169" fill="#222">0.6</text>
      <rect x="164" y="144" width="48" height="38" fill="#e8f5e9" stroke="#2e7d32"/><text x="188" y="169" fill="#1b5e20">0.0</text>
      <rect x="212" y="144" width="48" height="38" fill="#fff"     stroke="#2e7d32"/><text x="236" y="169" fill="#222">1.1</text>
      <!-- row 4 -->
      <rect x="20"  y="182" width="48" height="38" fill="#fff"     stroke="#2e7d32"/><text x="44"  y="207" fill="#222">1.7</text>
      <rect x="68"  y="182" width="48" height="38" fill="#fff"     stroke="#2e7d32"/><text x="92"  y="207" fill="#222">1.4</text>
      <rect x="116" y="182" width="48" height="38" fill="#fff"     stroke="#2e7d32"/><text x="140" y="207" fill="#222">0.4</text>
      <rect x="164" y="182" width="48" height="38" fill="#fff"     stroke="#2e7d32"/><text x="188" y="207" fill="#222">1.1</text>
      <rect x="212" y="182" width="48" height="38" fill="#e8f5e9" stroke="#2e7d32"/><text x="236" y="207" fill="#1b5e20">0.0</text>
    </g>
  </g>

  <!-- ============== Panel 3: adjacency matrix (binary) ============== -->
  <g transform="translate(610,60)">
    <text x="140" y="0" text-anchor="middle" font-size="14" font-weight="600" fill="#d97706">adjacency matrix</text>
    <text x="140" y="18" text-anchor="middle" font-size="12" fill="#555">graph edges — 0/1 entries</text>

    <g font-family="ui-monospace, monospace" font-size="12" text-anchor="middle">
      <!-- 6x6 cells 40 wide x 32 high, total 240 x 192, x in 20..260 -->
      <!-- edges: (0,2)(0,4)(1,3)(2,0)(2,5)(3,1)(3,4)(4,0)(4,3)(5,2) -->
      <!-- row 0 -->
      <rect x="20"  y="30" width="40" height="32" fill="#f5f5f5" stroke="#bbb"/><text x="40"  y="50" fill="#888">0</text>
      <rect x="60"  y="30" width="40" height="32" fill="#f5f5f5" stroke="#bbb"/><text x="80"  y="50" fill="#888">0</text>
      <rect x="100" y="30" width="40" height="32" fill="#fff3cd" stroke="#d97706"/><text x="120" y="50" fill="#7a3d00">1</text>
      <rect x="140" y="30" width="40" height="32" fill="#f5f5f5" stroke="#bbb"/><text x="160" y="50" fill="#888">0</text>
      <rect x="180" y="30" width="40" height="32" fill="#fff3cd" stroke="#d97706"/><text x="200" y="50" fill="#7a3d00">1</text>
      <rect x="220" y="30" width="40" height="32" fill="#f5f5f5" stroke="#bbb"/><text x="240" y="50" fill="#888">0</text>
      <!-- row 1 -->
      <rect x="20"  y="62" width="40" height="32" fill="#f5f5f5" stroke="#bbb"/><text x="40"  y="82" fill="#888">0</text>
      <rect x="60"  y="62" width="40" height="32" fill="#f5f5f5" stroke="#bbb"/><text x="80"  y="82" fill="#888">0</text>
      <rect x="100" y="62" width="40" height="32" fill="#f5f5f5" stroke="#bbb"/><text x="120" y="82" fill="#888">0</text>
      <rect x="140" y="62" width="40" height="32" fill="#fff3cd" stroke="#d97706"/><text x="160" y="82" fill="#7a3d00">1</text>
      <rect x="180" y="62" width="40" height="32" fill="#f5f5f5" stroke="#bbb"/><text x="200" y="82" fill="#888">0</text>
      <rect x="220" y="62" width="40" height="32" fill="#f5f5f5" stroke="#bbb"/><text x="240" y="82" fill="#888">0</text>
      <!-- row 2 -->
      <rect x="20"  y="94" width="40" height="32" fill="#fff3cd" stroke="#d97706"/><text x="40"  y="114" fill="#7a3d00">1</text>
      <rect x="60"  y="94" width="40" height="32" fill="#f5f5f5" stroke="#bbb"/><text x="80"  y="114" fill="#888">0</text>
      <rect x="100" y="94" width="40" height="32" fill="#f5f5f5" stroke="#bbb"/><text x="120" y="114" fill="#888">0</text>
      <rect x="140" y="94" width="40" height="32" fill="#f5f5f5" stroke="#bbb"/><text x="160" y="114" fill="#888">0</text>
      <rect x="180" y="94" width="40" height="32" fill="#f5f5f5" stroke="#bbb"/><text x="200" y="114" fill="#888">0</text>
      <rect x="220" y="94" width="40" height="32" fill="#fff3cd" stroke="#d97706"/><text x="240" y="114" fill="#7a3d00">1</text>
      <!-- row 3 -->
      <rect x="20"  y="126" width="40" height="32" fill="#f5f5f5" stroke="#bbb"/><text x="40"  y="146" fill="#888">0</text>
      <rect x="60"  y="126" width="40" height="32" fill="#fff3cd" stroke="#d97706"/><text x="80"  y="146" fill="#7a3d00">1</text>
      <rect x="100" y="126" width="40" height="32" fill="#f5f5f5" stroke="#bbb"/><text x="120" y="146" fill="#888">0</text>
      <rect x="140" y="126" width="40" height="32" fill="#f5f5f5" stroke="#bbb"/><text x="160" y="146" fill="#888">0</text>
      <rect x="180" y="126" width="40" height="32" fill="#fff3cd" stroke="#d97706"/><text x="200" y="146" fill="#7a3d00">1</text>
      <rect x="220" y="126" width="40" height="32" fill="#f5f5f5" stroke="#bbb"/><text x="240" y="146" fill="#888">0</text>
      <!-- row 4 -->
      <rect x="20"  y="158" width="40" height="32" fill="#fff3cd" stroke="#d97706"/><text x="40"  y="178" fill="#7a3d00">1</text>
      <rect x="60"  y="158" width="40" height="32" fill="#f5f5f5" stroke="#bbb"/><text x="80"  y="178" fill="#888">0</text>
      <rect x="100" y="158" width="40" height="32" fill="#f5f5f5" stroke="#bbb"/><text x="120" y="178" fill="#888">0</text>
      <rect x="140" y="158" width="40" height="32" fill="#fff3cd" stroke="#d97706"/><text x="160" y="178" fill="#7a3d00">1</text>
      <rect x="180" y="158" width="40" height="32" fill="#f5f5f5" stroke="#bbb"/><text x="200" y="178" fill="#888">0</text>
      <rect x="220" y="158" width="40" height="32" fill="#f5f5f5" stroke="#bbb"/><text x="240" y="178" fill="#888">0</text>
      <!-- row 5 -->
      <rect x="20"  y="190" width="40" height="32" fill="#f5f5f5" stroke="#bbb"/><text x="40"  y="210" fill="#888">0</text>
      <rect x="60"  y="190" width="40" height="32" fill="#f5f5f5" stroke="#bbb"/><text x="80"  y="210" fill="#888">0</text>
      <rect x="100" y="190" width="40" height="32" fill="#fff3cd" stroke="#d97706"/><text x="120" y="210" fill="#7a3d00">1</text>
      <rect x="140" y="190" width="40" height="32" fill="#f5f5f5" stroke="#bbb"/><text x="160" y="210" fill="#888">0</text>
      <rect x="180" y="190" width="40" height="32" fill="#f5f5f5" stroke="#bbb"/><text x="200" y="210" fill="#888">0</text>
      <rect x="220" y="190" width="40" height="32" fill="#f5f5f5" stroke="#bbb"/><text x="240" y="210" fill="#888">0</text>
    </g>
  </g>

  <!-- ============== Panel 4: BLOSUM62-style ============== -->
  <g transform="translate(910,60)">
    <text x="140" y="0" text-anchor="middle" font-size="14" font-weight="600" fill="#c62828">BLOSUM62</text>
    <text x="140" y="18" text-anchor="middle" font-size="12" fill="#555">amino-acid substitution scores</text>

    <!-- 8x8 stylised heatmap, cell 30 x 24, total 240 x 192, x in 20..260 -->
    <g font-family="ui-monospace, monospace" font-size="10" text-anchor="middle">
      <!-- row 0 -->
      <rect x="20"  y="30" width="30" height="24" fill="#2e7d32" stroke="#1b5e20"/><text x="35"  y="46" fill="#fff">+4</text>
      <rect x="50"  y="30" width="30" height="24" fill="#fbe9e7" stroke="#888"/><text x="65"  y="46" fill="#c62828">-1</text>
      <rect x="80"  y="30" width="30" height="24" fill="#fbe9e7" stroke="#888"/><text x="95"  y="46" fill="#c62828">-2</text>
      <rect x="110" y="30" width="30" height="24" fill="#fbe9e7" stroke="#888"/><text x="125" y="46" fill="#c62828">-2</text>
      <rect x="140" y="30" width="30" height="24" fill="#f5f5f5" stroke="#bbb"/><text x="155" y="46" fill="#222">0</text>
      <rect x="170" y="30" width="30" height="24" fill="#fbe9e7" stroke="#888"/><text x="185" y="46" fill="#c62828">-1</text>
      <rect x="200" y="30" width="30" height="24" fill="#fbe9e7" stroke="#888"/><text x="215" y="46" fill="#c62828">-1</text>
      <rect x="230" y="30" width="30" height="24" fill="#f5f5f5" stroke="#bbb"/><text x="245" y="46" fill="#222">0</text>
      <!-- row 1 -->
      <rect x="20"  y="54" width="30" height="24" fill="#fbe9e7" stroke="#888"/><text x="35"  y="70" fill="#c62828">-1</text>
      <rect x="50"  y="54" width="30" height="24" fill="#2e7d32" stroke="#1b5e20"/><text x="65"  y="70" fill="#fff">+5</text>
      <rect x="80"  y="54" width="30" height="24" fill="#f5f5f5" stroke="#bbb"/><text x="95"  y="70" fill="#222">0</text>
      <rect x="110" y="54" width="30" height="24" fill="#fbe9e7" stroke="#888"/><text x="125" y="70" fill="#c62828">-2</text>
      <rect x="140" y="54" width="30" height="24" fill="#fbe9e7" stroke="#888"/><text x="155" y="70" fill="#c62828">-3</text>
      <rect x="170" y="54" width="30" height="24" fill="#a5d6a7" stroke="#2e7d32"/><text x="185" y="70" fill="#1b5e20">+1</text>
      <rect x="200" y="54" width="30" height="24" fill="#f5f5f5" stroke="#bbb"/><text x="215" y="70" fill="#222">0</text>
      <rect x="230" y="54" width="30" height="24" fill="#fbe9e7" stroke="#888"/><text x="245" y="70" fill="#c62828">-2</text>
      <!-- row 2 -->
      <rect x="20"  y="78" width="30" height="24" fill="#fbe9e7" stroke="#888"/><text x="35"  y="94" fill="#c62828">-2</text>
      <rect x="50"  y="78" width="30" height="24" fill="#f5f5f5" stroke="#bbb"/><text x="65"  y="94" fill="#222">0</text>
      <rect x="80"  y="78" width="30" height="24" fill="#2e7d32" stroke="#1b5e20"/><text x="95"  y="94" fill="#fff">+6</text>
      <rect x="110" y="78" width="30" height="24" fill="#a5d6a7" stroke="#2e7d32"/><text x="125" y="94" fill="#1b5e20">+1</text>
      <rect x="140" y="78" width="30" height="24" fill="#fbe9e7" stroke="#888"/><text x="155" y="94" fill="#c62828">-3</text>
      <rect x="170" y="78" width="30" height="24" fill="#f5f5f5" stroke="#bbb"/><text x="185" y="94" fill="#222">0</text>
      <rect x="200" y="78" width="30" height="24" fill="#f5f5f5" stroke="#bbb"/><text x="215" y="94" fill="#222">0</text>
      <rect x="230" y="78" width="30" height="24" fill="#a5d6a7" stroke="#2e7d32"/><text x="245" y="94" fill="#1b5e20">+1</text>
      <!-- row 3 -->
      <rect x="20"  y="102" width="30" height="24" fill="#fbe9e7" stroke="#888"/><text x="35"  y="118" fill="#c62828">-2</text>
      <rect x="50"  y="102" width="30" height="24" fill="#fbe9e7" stroke="#888"/><text x="65"  y="118" fill="#c62828">-2</text>
      <rect x="80"  y="102" width="30" height="24" fill="#a5d6a7" stroke="#2e7d32"/><text x="95"  y="118" fill="#1b5e20">+1</text>
      <rect x="110" y="102" width="30" height="24" fill="#2e7d32" stroke="#1b5e20"/><text x="125" y="118" fill="#fff">+6</text>
      <rect x="140" y="102" width="30" height="24" fill="#fbe9e7" stroke="#888"/><text x="155" y="118" fill="#c62828">-3</text>
      <rect x="170" y="102" width="30" height="24" fill="#f5f5f5" stroke="#bbb"/><text x="185" y="118" fill="#222">0</text>
      <rect x="200" y="102" width="30" height="24" fill="#a5d6a7" stroke="#2e7d32"/><text x="215" y="118" fill="#1b5e20">+2</text>
      <rect x="230" y="102" width="30" height="24" fill="#fbe9e7" stroke="#888"/><text x="245" y="118" fill="#c62828">-1</text>
      <!-- row 4 -->
      <rect x="20"  y="126" width="30" height="24" fill="#f5f5f5" stroke="#bbb"/><text x="35"  y="142" fill="#222">0</text>
      <rect x="50"  y="126" width="30" height="24" fill="#fbe9e7" stroke="#888"/><text x="65"  y="142" fill="#c62828">-3</text>
      <rect x="80"  y="126" width="30" height="24" fill="#fbe9e7" stroke="#888"/><text x="95"  y="142" fill="#c62828">-3</text>
      <rect x="110" y="126" width="30" height="24" fill="#fbe9e7" stroke="#888"/><text x="125" y="142" fill="#c62828">-3</text>
      <rect x="140" y="126" width="30" height="24" fill="#2e7d32" stroke="#1b5e20"/><text x="155" y="142" fill="#fff">+9</text>
      <rect x="170" y="126" width="30" height="24" fill="#fbe9e7" stroke="#888"/><text x="185" y="142" fill="#c62828">-3</text>
      <rect x="200" y="126" width="30" height="24" fill="#fbe9e7" stroke="#888"/><text x="215" y="142" fill="#c62828">-4</text>
      <rect x="230" y="126" width="30" height="24" fill="#fbe9e7" stroke="#888"/><text x="245" y="142" fill="#c62828">-3</text>
      <!-- row 5 -->
      <rect x="20"  y="150" width="30" height="24" fill="#fbe9e7" stroke="#888"/><text x="35"  y="166" fill="#c62828">-1</text>
      <rect x="50"  y="150" width="30" height="24" fill="#a5d6a7" stroke="#2e7d32"/><text x="65"  y="166" fill="#1b5e20">+1</text>
      <rect x="80"  y="150" width="30" height="24" fill="#f5f5f5" stroke="#bbb"/><text x="95"  y="166" fill="#222">0</text>
      <rect x="110" y="150" width="30" height="24" fill="#f5f5f5" stroke="#bbb"/><text x="125" y="166" fill="#222">0</text>
      <rect x="140" y="150" width="30" height="24" fill="#fbe9e7" stroke="#888"/><text x="155" y="166" fill="#c62828">-3</text>
      <rect x="170" y="150" width="30" height="24" fill="#2e7d32" stroke="#1b5e20"/><text x="185" y="166" fill="#fff">+5</text>
      <rect x="200" y="150" width="30" height="24" fill="#a5d6a7" stroke="#2e7d32"/><text x="215" y="166" fill="#1b5e20">+2</text>
      <rect x="230" y="150" width="30" height="24" fill="#fbe9e7" stroke="#888"/><text x="245" y="166" fill="#c62828">-2</text>
      <!-- row 6 -->
      <rect x="20"  y="174" width="30" height="24" fill="#fbe9e7" stroke="#888"/><text x="35"  y="190" fill="#c62828">-1</text>
      <rect x="50"  y="174" width="30" height="24" fill="#f5f5f5" stroke="#bbb"/><text x="65"  y="190" fill="#222">0</text>
      <rect x="80"  y="174" width="30" height="24" fill="#f5f5f5" stroke="#bbb"/><text x="95"  y="190" fill="#222">0</text>
      <rect x="110" y="174" width="30" height="24" fill="#a5d6a7" stroke="#2e7d32"/><text x="125" y="190" fill="#1b5e20">+2</text>
      <rect x="140" y="174" width="30" height="24" fill="#fbe9e7" stroke="#888"/><text x="155" y="190" fill="#c62828">-4</text>
      <rect x="170" y="174" width="30" height="24" fill="#a5d6a7" stroke="#2e7d32"/><text x="185" y="190" fill="#1b5e20">+2</text>
      <rect x="200" y="174" width="30" height="24" fill="#2e7d32" stroke="#1b5e20"/><text x="215" y="190" fill="#fff">+5</text>
      <rect x="230" y="174" width="30" height="24" fill="#fbe9e7" stroke="#888"/><text x="245" y="190" fill="#c62828">-2</text>
      <!-- row 7 -->
      <rect x="20"  y="198" width="30" height="24" fill="#f5f5f5" stroke="#bbb"/><text x="35"  y="214" fill="#222">0</text>
      <rect x="50"  y="198" width="30" height="24" fill="#fbe9e7" stroke="#888"/><text x="65"  y="214" fill="#c62828">-2</text>
      <rect x="80"  y="198" width="30" height="24" fill="#f5f5f5" stroke="#bbb"/><text x="95"  y="214" fill="#222">0</text>
      <rect x="110" y="198" width="30" height="24" fill="#fbe9e7" stroke="#888"/><text x="125" y="214" fill="#c62828">-1</text>
      <rect x="140" y="198" width="30" height="24" fill="#fbe9e7" stroke="#888"/><text x="155" y="214" fill="#c62828">-3</text>
      <rect x="170" y="198" width="30" height="24" fill="#fbe9e7" stroke="#888"/><text x="185" y="214" fill="#c62828">-2</text>
      <rect x="200" y="198" width="30" height="24" fill="#fbe9e7" stroke="#888"/><text x="215" y="214" fill="#c62828">-2</text>
      <rect x="230" y="198" width="30" height="24" fill="#2e7d32" stroke="#1b5e20"/><text x="245" y="214" fill="#fff">+6</text>
    </g>
  </g>

</svg>
