<?xml version="1.0" encoding="UTF-8"?>
<svg xmlns="http://www.w3.org/2000/svg" viewBox="0 0 900 500" font-family="system-ui, -apple-system, sans-serif">
  <title>How operation count grows with input size (log-log scale)</title>

  <!-- Title -->
  <text x="450" y="30" text-anchor="middle" font-size="20" font-weight="600" fill="#222">How operation count grows with input size (log-log scale)</text>

  <!-- Plot background -->
  <rect x="80" y="60" width="700" height="370" fill="#fafbfc" stroke="#ccc" stroke-width="1"/>

  <!-- Horizontal gridlines at log y = 0,1,2,3,4,5,6,10 -->
  <!-- y = 1   => 430 -->
  <!-- y = 10  => 393 -->
  <!-- y = 100 => 356 -->
  <!-- y = 1000=> 319 -->
  <!-- y = 1e4 => 282 -->
  <!-- y = 1e5 => 245 -->
  <!-- y = 1e6 => 208 -->
  <!-- y = 1e10=> 60  -->
  <g stroke="#e6e6e6" stroke-width="1">
    <line x1="80" y1="393" x2="780" y2="393"/>
    <line x1="80" y1="356" x2="780" y2="356"/>
    <line x1="80" y1="319" x2="780" y2="319"/>
    <line x1="80" y1="282" x2="780" y2="282"/>
    <line x1="80" y1="245" x2="780" y2="245"/>
    <line x1="80" y1="208" x2="780" y2="208"/>
    <line x1="80" y1="60"  x2="780" y2="60"/>
  </g>

  <!-- Vertical gridlines at x = 1, 10, 100, 1000 -->
  <!-- x=1   => 80,  x=10 => 313.3, x=100 => 546.7, x=1000 => 780 -->
  <g stroke="#e6e6e6" stroke-width="1">
    <line x1="313.3" y1="60" x2="313.3" y2="430"/>
    <line x1="546.7" y1="60" x2="546.7" y2="430"/>
  </g>

  <!-- Y axis -->
  <line x1="80" y1="60" x2="80" y2="430" stroke="#444" stroke-width="1.2"/>
  <!-- X axis -->
  <line x1="80" y1="430" x2="780" y2="430" stroke="#444" stroke-width="1.2"/>

  <!-- Y tick labels -->
  <g font-family="ui-monospace, monospace" font-size="12" fill="#444" text-anchor="end">
    <text x="74" y="434">1</text>
    <text x="74" y="397">10</text>
    <text x="74" y="360">100</text>
    <text x="74" y="323">1000</text>
    <text x="74" y="286">10^4</text>
    <text x="74" y="249">10^5</text>
    <text x="74" y="212">10^6</text>
    <text x="74" y="64">10^10</text>
  </g>

  <!-- X tick labels -->
  <g font-family="ui-monospace, monospace" font-size="12" fill="#444" text-anchor="middle">
    <text x="80"    y="448">1</text>
    <text x="313.3" y="448">10</text>
    <text x="546.7" y="448">100</text>
    <text x="780"   y="448">1000</text>
  </g>

  <!-- X tick marks -->
  <g stroke="#444" stroke-width="1.2">
    <line x1="80"    y1="430" x2="80"    y2="434"/>
    <line x1="313.3" y1="430" x2="313.3" y2="434"/>
    <line x1="546.7" y1="430" x2="546.7" y2="434"/>
    <line x1="780"   y1="430" x2="780"   y2="434"/>
  </g>

  <!-- Axis labels -->
  <text x="430" y="475" text-anchor="middle" font-size="14" fill="#222">input size n</text>
  <text x="22" y="245" text-anchor="middle" font-size="14" fill="#222" transform="rotate(-90 22 245)">operations performed</text>

  <!-- Curves -->
  <!-- O(1) - dark green flat at y=430 (but draw slightly above for visibility) -->
  <polyline fill="none" stroke="#2e7d32" stroke-width="2.5"
            points="80,430 780,430"/>

  <!-- O(log n) - lighter green -->
  <polyline fill="none" stroke="#66bb6a" stroke-width="2.5"
            points="80,430 87.8,428.3 95.6,426.8 103.3,425.4 111.1,424.1 118.9,422.9 126.7,421.8 134.4,420.8 142.2,419.8 150,418.9 157.8,418 165.6,417.2 173.3,416.4 181.1,415.7 188.9,415 196.7,414.3 204.4,413.6 212.2,413 220,412.4 227.8,411.8 235.6,411.2 243.3,410.7 251.1,410.2 258.9,409.7 266.7,409.2 274.4,408.7 282.2,408.2 290,407.8 297.8,407.3 305.6,406.9 313.3,406.5 321.1,406.1 328.9,405.7 336.7,405.3 344.4,404.9 352.2,404.5 360,404.2 367.8,403.8 375.6,403.5 383.3,403.1 391.1,402.8 398.9,402.5 406.7,402.2 414.4,401.9 422.2,401.6 430,401.3 437.8,401 445.6,400.7 453.3,400.4 461.1,400.1 468.9,399.8 476.7,399.6 484.4,399.3 492.2,399 500,398.8 507.8,398.5 515.6,398.3 523.3,398 531.1,397.8 538.9,397.6 546.7,397.3 554.4,397.1 562.2,396.9 570,396.6 577.8,396.4 585.6,396.2 593.3,396 601.1,395.8 608.9,395.6 616.7,395.3 624.4,395.1 632.2,394.9 640,394.7 647.8,394.5 655.6,394.4 663.3,394.2 671.1,394 678.9,393.8 686.7,393.6 694.4,393.4 702.2,393.2 710,393 717.8,392.9 725.6,392.7 733.3,392.5 741.1,392.4 748.9,392.2 756.7,392 764.4,391.8 772.2,391.7 780,391.5"/>

  <!-- O(n) - blue -->
  <polyline fill="none" stroke="#1976d2" stroke-width="2.5"
            points="80,430 87.8,428.8 95.6,427.5 103.3,426.3 111.1,425.1 118.9,423.8 126.7,422.6 134.4,421.4 142.2,420.1 150,418.9 157.8,417.7 165.6,416.4 173.3,415.2 181.1,414 188.9,412.7 196.7,411.5 204.4,410.3 212.2,409 220,407.8 227.8,406.6 235.6,405.3 243.3,404.1 251.1,402.9 258.9,401.6 266.7,400.4 274.4,399.2 282.2,397.9 290,396.7 297.8,395.5 305.6,394.2 313.3,393 321.1,391.8 328.9,390.5 336.7,389.3 344.4,388.1 352.2,386.8 360,385.6 367.8,384.4 375.6,383.1 383.3,381.9 391.1,380.7 398.9,379.4 406.7,378.2 414.4,377 422.2,375.7 430,374.5 437.8,373.3 445.6,372 453.3,370.8 461.1,369.6 468.9,368.3 476.7,367.1 484.4,365.9 492.2,364.6 500,363.4 507.8,362.2 515.6,360.9 523.3,359.7 531.1,358.5 538.9,357.2 546.7,356 554.4,354.8 562.2,353.5 570,352.3 577.8,351.1 585.6,349.8 593.3,348.6 601.1,347.4 608.9,346.1 616.7,344.9 624.4,343.7 632.2,342.4 640,341.2 647.8,340 655.6,338.7 663.3,337.5 671.1,336.3 678.9,335 686.7,333.8 694.4,332.6 702.2,331.3 710,330.1 717.8,328.9 725.6,327.6 733.3,326.4 741.1,325.2 748.9,323.9 756.7,322.7 764.4,321.5 772.2,320.2 780,319"/>

  <!-- O(n log n) - light orange -->
  <polyline fill="none" stroke="#fbbf24" stroke-width="2.5"
            points="80,430 87.8,428.8 95.6,427.5 103.3,426.3 111.1,425.1 118.9,423.8 126.7,422.6 134.4,421.4 142.2,420.1 150,418.9 157.8,416 165.6,413.3 173.3,410.6 181.1,408.1 188.9,405.7 196.7,403.3 204.4,401.1 212.2,398.9 220,396.7 227.8,394.6 235.6,392.6 243.3,390.5 251.1,388.6 258.9,386.6 266.7,384.7 274.4,382.8 282.2,380.9 290,379.1 297.8,377.3 305.6,375.5 313.3,373.7 321.1,371.9 328.9,370.2 336.7,368.5 344.4,366.8 352.2,365.1 360,363.4 367.8,361.7 375.6,360 383.3,358.4 391.1,356.8 398.9,355.1 406.7,353.5 414.4,351.9 422.2,350.3 430,348.7 437.8,347.1 445.6,345.5 453.3,344 461.1,342.4 468.9,340.8 476.7,339.3 484.4,337.7 492.2,336.2 500,334.7 507.8,333.1 515.6,331.6 523.3,330.1 531.1,328.6 538.9,327.1 546.7,325.6 554.4,324.1 562.2,322.6 570,321.1 577.8,319.6 585.6,318.1 593.3,316.6 601.1,315.2 608.9,313.7 616.7,312.2 624.4,310.8 632.2,309.3 640,307.8 647.8,306.4 655.6,304.9 663.3,303.5 671.1,302 678.9,300.6 686.7,299.2 694.4,297.7 702.2,296.3 710,294.8 717.8,293.4 725.6,292 733.3,290.6 741.1,289.1 748.9,287.7 756.7,286.3 764.4,284.9 772.2,283.5 780,282.1"/>

  <!-- O(n^2) - dark orange -->
  <polyline fill="none" stroke="#d97706" stroke-width="2.5"
            points="80,430 87.8,427.5 95.6,425.1 103.3,422.6 111.1,420.1 118.9,417.7 126.7,415.2 134.4,412.7 142.2,410.3 150,407.8 157.8,405.3 165.6,402.9 173.3,400.4 181.1,397.9 188.9,395.5 196.7,393 204.4,390.5 212.2,388.1 220,385.6 227.8,383.1 235.6,380.7 243.3,378.2 251.1,375.7 258.9,373.3 266.7,370.8 274.4,368.3 282.2,365.9 290,363.4 297.8,360.9 305.6,358.5 313.3,356 321.1,353.5 328.9,351.1 336.7,348.6 344.4,346.1 352.2,343.7 360,341.2 367.8,338.7 375.6,336.3 383.3,333.8 391.1,331.3 398.9,328.9 406.7,326.4 414.4,323.9 422.2,321.5 430,319 437.8,316.5 445.6,314.1 453.3,311.6 461.1,309.1 468.9,306.7 476.7,304.2 484.4,301.7 492.2,299.3 500,296.8 507.8,294.3 515.6,291.9 523.3,289.4 531.1,286.9 538.9,284.5 546.7,282 554.4,279.5 562.2,277.1 570,274.6 577.8,272.1 585.6,269.7 593.3,267.2 601.1,264.7 608.9,262.3 616.7,259.8 624.4,257.3 632.2,254.9 640,252.4 647.8,249.9 655.6,247.5 663.3,245 671.1,242.5 678.9,240.1 686.7,237.6 694.4,235.1 702.2,232.7 710,230.2 717.8,227.7 725.6,225.3 733.3,222.8 741.1,220.3 748.9,217.9 756.7,215.4 764.4,212.9 772.2,210.5 780,208"/>

  <!-- O(n!) - red, only up to n where it fits -->
  <polyline fill="none" stroke="#c62828" stroke-width="2.5"
            points="80,430 89.7,428.9 98.5,427.8 106.6,426.7 114.1,425.5 121.1,424.4 127.6,423.3 133.8,422.2 139.6,421.1 145,420 150.2,418.9 155.2,417.1 159.9,415.3 164.4,413.6 168.7,411.8 172.9,410 176.8,408.3 180.7,406.5 184.3,404.7 187.9,403 191.3,401.2 194.7,399 197.9,396.8 201,394.5 204,392.3 206.9,390.1 209.8,387.8 212.6,385.6 215.3,383.4 217.9,381.2 220.5,378.9 223,376.3 225.4,373.8 227.8,371.2 230.1,368.6 232.4,366 234.6,363.4 236.8,360.8 239,358.2 241,355.7 243.1,353.1 245.1,350.2 247.1,347.3 249,344.4 250.9,341.6 252.8,338.7 254.6,335.8 256.4,332.9 258.1,330 259.9,327.2 261.6,324.3 263.2,321.2 264.9,318 266.5,314.9 268.1,311.8 269.7,308.6 271.2,305.5 272.8,302.4 274.3,299.3 275.7,296.1 277.2,293 278.6,289.7 280,286.3 281.4,283 282.8,279.6 284.2,276.3 285.5,273 286.8,269.6 288.2,266.3 289.4,262.9 290.7,259.6 292,256.1 293.2,252.5 294.5,249 295.7,245.5 296.9,241.9 298,238.4 299.2,234.9 300.4,231.4 301.5,227.8 302.7,224.3 303.8,220.6 304.9,216.9 306,213.2 307.1,209.5 308.1,205.8 309.2,202.1 310.2,198.4 311.3,194.7 312.3,191 313.3,187.3 314.3,183.4 315.3,179.6 316.3,175.7 317.3,171.9 318.3,168 319.2,164.2 320.2,160.3 321.1,156.5 322.1,152.6 323,148.8 323.9,144.8 324.8,140.8 325.7,136.8 326.6,132.8 327.5,128.8 328.4,124.8 329.2,120.8 330.1,116.8 331,112.8 331.8,108.8 332.6,104.7 333.5,100.6 334.3,96.5 335.1,92.3 335.9,88.2 336.8,84.1 337.6,80 338.3,75.9 339.1,71.7 339.9,67.6"/>

  <!-- Curve labels at right endpoints -->
  <g font-family="ui-monospace, monospace" font-size="13">
    <!-- O(1) at y=430 -->
    <text x="786" y="434" fill="#2e7d32">O(1)</text>
    <!-- O(log n) at y=391.5 -->
    <text x="786" y="395" fill="#66bb6a">O(log n)</text>
    <!-- O(n) at y=319 -->
    <text x="786" y="323" fill="#1976d2">O(n)</text>
    <!-- O(n log n) at y=282 -->
    <text x="786" y="286" fill="#d97706">O(n log n)</text>
    <!-- O(n^2) at y=208 -->
    <text x="786" y="212" fill="#d97706" font-weight="600">O(n^2)</text>
    <!-- O(n!) at top, label near the curve end (339.9, 67.6) -->
    <text x="346" y="63" fill="#c62828" font-weight="600">O(n!)</text>
  </g>

  <!-- Caption -->
  <text x="450" y="492" text-anchor="middle" font-size="13" font-style="italic" fill="#888">Above n &#8776; 10, O(n!) is off the chart. Above n &#8776; 1000, O(n&#178;) starts becoming painful. O(n log n) handles essentially anything.</text>
</svg>
