<?xml version="1.0" encoding="UTF-8"?>
<svg xmlns="http://www.w3.org/2000/svg" viewBox="0 0 900 500"
     font-family="system-ui, -apple-system, sans-serif">

  <!-- ===== Top ribbon: i64 ===== -->
  <!-- 64 cells × 8.5 px wide, starting at x=30, y=70, height=36 -->
  <!-- Total width = 64 * 8.5 = 544 -->

  <text x="30" y="55" font-size="20" font-weight="700">
    <tspan font-family="ui-monospace, monospace" fill="#1565c0">i64</tspan>
    <tspan font-weight="400" fill="#333"> — signed integer</tspan>
  </text>

  <!-- Sign bit cell -->
  <rect x="30" y="70" width="8.5" height="36" fill="#fff3cd" stroke="#888" stroke-width="0.5"/>
  <!-- Magnitude cells: 63 of them, light blue -->
  <g fill="#e3f2fd" stroke="#888" stroke-width="0.5">
    <rect x="38.5"  y="70" width="8.5" height="36"/>
    <rect x="47"    y="70" width="8.5" height="36"/>
    <rect x="55.5"  y="70" width="8.5" height="36"/>
    <rect x="64"    y="70" width="8.5" height="36"/>
    <rect x="72.5"  y="70" width="8.5" height="36"/>
    <rect x="81"    y="70" width="8.5" height="36"/>
    <rect x="89.5"  y="70" width="8.5" height="36"/>
    <rect x="98"    y="70" width="8.5" height="36"/>
    <rect x="106.5" y="70" width="8.5" height="36"/>
    <rect x="115"   y="70" width="8.5" height="36"/>
    <rect x="123.5" y="70" width="8.5" height="36"/>
    <rect x="132"   y="70" width="8.5" height="36"/>
    <rect x="140.5" y="70" width="8.5" height="36"/>
    <rect x="149"   y="70" width="8.5" height="36"/>
    <rect x="157.5" y="70" width="8.5" height="36"/>
    <rect x="166"   y="70" width="8.5" height="36"/>
    <rect x="174.5" y="70" width="8.5" height="36"/>
    <rect x="183"   y="70" width="8.5" height="36"/>
    <rect x="191.5" y="70" width="8.5" height="36"/>
    <rect x="200"   y="70" width="8.5" height="36"/>
    <rect x="208.5" y="70" width="8.5" height="36"/>
    <rect x="217"   y="70" width="8.5" height="36"/>
    <rect x="225.5" y="70" width="8.5" height="36"/>
    <rect x="234"   y="70" width="8.5" height="36"/>
    <rect x="242.5" y="70" width="8.5" height="36"/>
    <rect x="251"   y="70" width="8.5" height="36"/>
    <rect x="259.5" y="70" width="8.5" height="36"/>
    <rect x="268"   y="70" width="8.5" height="36"/>
    <rect x="276.5" y="70" width="8.5" height="36"/>
    <rect x="285"   y="70" width="8.5" height="36"/>
    <rect x="293.5" y="70" width="8.5" height="36"/>
    <rect x="302"   y="70" width="8.5" height="36"/>
    <rect x="310.5" y="70" width="8.5" height="36"/>
    <rect x="319"   y="70" width="8.5" height="36"/>
    <rect x="327.5" y="70" width="8.5" height="36"/>
    <rect x="336"   y="70" width="8.5" height="36"/>
    <rect x="344.5" y="70" width="8.5" height="36"/>
    <rect x="353"   y="70" width="8.5" height="36"/>
    <rect x="361.5" y="70" width="8.5" height="36"/>
    <rect x="370"   y="70" width="8.5" height="36"/>
    <rect x="378.5" y="70" width="8.5" height="36"/>
    <rect x="387"   y="70" width="8.5" height="36"/>
    <rect x="395.5" y="70" width="8.5" height="36"/>
    <rect x="404"   y="70" width="8.5" height="36"/>
    <rect x="412.5" y="70" width="8.5" height="36"/>
    <rect x="421"   y="70" width="8.5" height="36"/>
    <rect x="429.5" y="70" width="8.5" height="36"/>
    <rect x="438"   y="70" width="8.5" height="36"/>
    <rect x="446.5" y="70" width="8.5" height="36"/>
    <rect x="455"   y="70" width="8.5" height="36"/>
    <rect x="463.5" y="70" width="8.5" height="36"/>
    <rect x="472"   y="70" width="8.5" height="36"/>
    <rect x="480.5" y="70" width="8.5" height="36"/>
    <rect x="489"   y="70" width="8.5" height="36"/>
    <rect x="497.5" y="70" width="8.5" height="36"/>
    <rect x="506"   y="70" width="8.5" height="36"/>
    <rect x="514.5" y="70" width="8.5" height="36"/>
    <rect x="523"   y="70" width="8.5" height="36"/>
    <rect x="531.5" y="70" width="8.5" height="36"/>
    <rect x="540"   y="70" width="8.5" height="36"/>
    <rect x="548.5" y="70" width="8.5" height="36"/>
    <rect x="557"   y="70" width="8.5" height="36"/>
    <rect x="565.5" y="70" width="8.5" height="36"/>
  </g>

  <!-- Sign bit label (above) -->
  <line x1="34.25" y1="70" x2="34.25" y2="118" stroke="#888" stroke-width="0.7"/>
  <text x="34.25" y="135" text-anchor="middle" font-size="11" fill="#b45309">sign</text>

  <!-- magnitude bracket label -->
  <line x1="38.5"  y1="112" x2="574" y2="112" stroke="#1565c0" stroke-width="1"/>
  <text x="306" y="128" text-anchor="middle" font-size="13" fill="#1565c0">
    magnitude (63 bits, two's complement)
  </text>

  <!-- Range and annotation to the right -->
  <text x="595" y="84" font-size="14" font-weight="600" fill="#333">
    Range: &#177;9.2 &#215; 10&#185;&#8312;
  </text>
  <text x="595" y="102" font-size="12" fill="#555">
    (&#8776; &#177;9 quintillion)
  </text>
  <text x="595" y="128" font-size="12" fill="#2e7d32">
    Exact integer values. No fractions.
  </text>

  <!-- ===== Bottom ribbon: f64 ===== -->
  <text x="30" y="190" font-size="20" font-weight="700">
    <tspan font-family="ui-monospace, monospace" fill="#b45309">f64</tspan>
    <tspan font-weight="400" fill="#333"> — IEEE 754 double</tspan>
  </text>

  <!-- Sign bit cell -->
  <rect x="30" y="205" width="8.5" height="36" fill="#fff3cd" stroke="#888" stroke-width="0.5"/>
  <!-- Exponent: 11 cells, light green -->
  <g fill="#d8f0d8" stroke="#888" stroke-width="0.5">
    <rect x="38.5"  y="205" width="8.5" height="36"/>
    <rect x="47"    y="205" width="8.5" height="36"/>
    <rect x="55.5"  y="205" width="8.5" height="36"/>
    <rect x="64"    y="205" width="8.5" height="36"/>
    <rect x="72.5"  y="205" width="8.5" height="36"/>
    <rect x="81"    y="205" width="8.5" height="36"/>
    <rect x="89.5"  y="205" width="8.5" height="36"/>
    <rect x="98"    y="205" width="8.5" height="36"/>
    <rect x="106.5" y="205" width="8.5" height="36"/>
    <rect x="115"   y="205" width="8.5" height="36"/>
    <rect x="123.5" y="205" width="8.5" height="36"/>
  </g>
  <!-- Mantissa: 52 cells, light pink -->
  <g fill="#fde2e4" stroke="#888" stroke-width="0.5">
    <rect x="132"   y="205" width="8.5" height="36"/>
    <rect x="140.5" y="205" width="8.5" height="36"/>
    <rect x="149"   y="205" width="8.5" height="36"/>
    <rect x="157.5" y="205" width="8.5" height="36"/>
    <rect x="166"   y="205" width="8.5" height="36"/>
    <rect x="174.5" y="205" width="8.5" height="36"/>
    <rect x="183"   y="205" width="8.5" height="36"/>
    <rect x="191.5" y="205" width="8.5" height="36"/>
    <rect x="200"   y="205" width="8.5" height="36"/>
    <rect x="208.5" y="205" width="8.5" height="36"/>
    <rect x="217"   y="205" width="8.5" height="36"/>
    <rect x="225.5" y="205" width="8.5" height="36"/>
    <rect x="234"   y="205" width="8.5" height="36"/>
    <rect x="242.5" y="205" width="8.5" height="36"/>
    <rect x="251"   y="205" width="8.5" height="36"/>
    <rect x="259.5" y="205" width="8.5" height="36"/>
    <rect x="268"   y="205" width="8.5" height="36"/>
    <rect x="276.5" y="205" width="8.5" height="36"/>
    <rect x="285"   y="205" width="8.5" height="36"/>
    <rect x="293.5" y="205" width="8.5" height="36"/>
    <rect x="302"   y="205" width="8.5" height="36"/>
    <rect x="310.5" y="205" width="8.5" height="36"/>
    <rect x="319"   y="205" width="8.5" height="36"/>
    <rect x="327.5" y="205" width="8.5" height="36"/>
    <rect x="336"   y="205" width="8.5" height="36"/>
    <rect x="344.5" y="205" width="8.5" height="36"/>
    <rect x="353"   y="205" width="8.5" height="36"/>
    <rect x="361.5" y="205" width="8.5" height="36"/>
    <rect x="370"   y="205" width="8.5" height="36"/>
    <rect x="378.5" y="205" width="8.5" height="36"/>
    <rect x="387"   y="205" width="8.5" height="36"/>
    <rect x="395.5" y="205" width="8.5" height="36"/>
    <rect x="404"   y="205" width="8.5" height="36"/>
    <rect x="412.5" y="205" width="8.5" height="36"/>
    <rect x="421"   y="205" width="8.5" height="36"/>
    <rect x="429.5" y="205" width="8.5" height="36"/>
    <rect x="438"   y="205" width="8.5" height="36"/>
    <rect x="446.5" y="205" width="8.5" height="36"/>
    <rect x="455"   y="205" width="8.5" height="36"/>
    <rect x="463.5" y="205" width="8.5" height="36"/>
    <rect x="472"   y="205" width="8.5" height="36"/>
    <rect x="480.5" y="205" width="8.5" height="36"/>
    <rect x="489"   y="205" width="8.5" height="36"/>
    <rect x="497.5" y="205" width="8.5" height="36"/>
    <rect x="506"   y="205" width="8.5" height="36"/>
    <rect x="514.5" y="205" width="8.5" height="36"/>
    <rect x="523"   y="205" width="8.5" height="36"/>
    <rect x="531.5" y="205" width="8.5" height="36"/>
    <rect x="540"   y="205" width="8.5" height="36"/>
    <rect x="548.5" y="205" width="8.5" height="36"/>
    <rect x="557"   y="205" width="8.5" height="36"/>
    <rect x="565.5" y="205" width="8.5" height="36"/>
  </g>

  <!-- sign label -->
  <text x="34.25" y="270" text-anchor="middle" font-size="11" fill="#b45309">sign</text>

  <!-- exponent bracket -->
  <line x1="38.5" y1="247" x2="132" y2="247" stroke="#2e7d32" stroke-width="1"/>
  <text x="85.25" y="263" text-anchor="middle" font-size="12" fill="#2e7d32">
    exponent (11 bits)
  </text>

  <!-- mantissa bracket -->
  <line x1="132" y1="247" x2="574" y2="247" stroke="#b85461" stroke-width="1"/>
  <text x="353" y="263" text-anchor="middle" font-size="12" fill="#b85461">
    mantissa (52 bits)
  </text>

  <!-- Range to the right -->
  <text x="595" y="220" font-size="14" font-weight="600" fill="#333">
    Range: ~&#177;1.8 &#215; 10&#179;&#8304;&#8312;
  </text>
  <text x="595" y="238" font-size="12" fill="#555">
    ~15&#8211;17 decimal digits of precision
  </text>
  <text x="595" y="264" font-size="12" fill="#b85461">
    Fractional values, but not exact &#8212;
  </text>
  <text x="595" y="280" font-size="12" font-family="ui-monospace, monospace" fill="#b85461">
    0.1 + 0.2 &#8800; 0.3 in f64.
  </text>

  <!-- ===== Comparison box ===== -->
  <rect x="60" y="330" width="780" height="120" fill="#f8f9fa" stroke="#bbb" stroke-width="1.5" rx="6"/>

  <text x="80" y="370" font-size="18" font-family="ui-monospace, monospace">
    <tspan fill="#1565c0">let n: i64 =</tspan> 1_000_000_000_000;
    <tspan fill="#2e7d32">     // exact</tspan>
  </text>
  <text x="80" y="410" font-size="18" font-family="ui-monospace, monospace">
    <tspan fill="#b45309">let g: f64 =</tspan> 0.42;
    <tspan fill="#b85461">                 // approximate</tspan>
  </text>
  <text x="80" y="438" font-size="13" fill="#555">
    Both occupy 8 bytes &#8212; the bit layout is what differs.
  </text>

</svg>
