<?xml version="1.0" encoding="UTF-8"?>
<svg xmlns="http://www.w3.org/2000/svg" viewBox="0 0 1100 380" font-family="system-ui, -apple-system, sans-serif">
  <title>Packing 8 bases into 16 bits</title>

  <defs>
    <marker id="arrPack" viewBox="0 0 10 10" refX="9" refY="5" markerWidth="6" markerHeight="6" orient="auto-start-reverse">
      <path d="M0,0 L10,5 L0,10 z" fill="#555"/>
    </marker>
  </defs>

  <text x="550" y="32" text-anchor="middle" font-size="22" font-weight="600" fill="#111">Packing 8 bases into 16 bits</text>

  <!--
    Top: 8 DNA chars (ACGTACGT) in coloured boxes.
    Cell width 100, height 44. Total 800. Start x = 150.
    Base indices left-to-right: 0,1,2,3,4,5,6,7.
    Centers: 200, 300, 400, 500, 600, 700, 800, 900.
  -->

  <!-- Top labels: base index -->
  <g font-family="ui-monospace, monospace" font-size="11" fill="#888" text-anchor="middle">
    <text x="200" y="76">base 0</text>
    <text x="300" y="76">base 1</text>
    <text x="400" y="76">base 2</text>
    <text x="500" y="76">base 3</text>
    <text x="600" y="76">base 4</text>
    <text x="700" y="76">base 5</text>
    <text x="800" y="76">base 6</text>
    <text x="900" y="76">base 7</text>
  </g>

  <!-- Coloured base boxes (palette consistent with figure 6) -->
  <g stroke-width="1.5">
    <rect x="150" y="84" width="100" height="44" rx="4" ry="4" fill="#e8f5e9" stroke="#2e7d32"/>
    <rect x="250" y="84" width="100" height="44" rx="4" ry="4" fill="#e3f2fd" stroke="#1976d2"/>
    <rect x="350" y="84" width="100" height="44" rx="4" ry="4" fill="#fff3cd" stroke="#d97706"/>
    <rect x="450" y="84" width="100" height="44" rx="4" ry="4" fill="#fde0e0" stroke="#c62828"/>
    <rect x="550" y="84" width="100" height="44" rx="4" ry="4" fill="#e8f5e9" stroke="#2e7d32"/>
    <rect x="650" y="84" width="100" height="44" rx="4" ry="4" fill="#e3f2fd" stroke="#1976d2"/>
    <rect x="750" y="84" width="100" height="44" rx="4" ry="4" fill="#fff3cd" stroke="#d97706"/>
    <rect x="850" y="84" width="100" height="44" rx="4" ry="4" fill="#fde0e0" stroke="#c62828"/>
  </g>
  <g font-family="ui-monospace, monospace" font-size="22" font-weight="600" text-anchor="middle">
    <text x="200" y="115" fill="#1b5e20">A</text>
    <text x="300" y="115" fill="#0d47a1">C</text>
    <text x="400" y="115" fill="#7a3d00">G</text>
    <text x="500" y="115" fill="#c62828">T</text>
    <text x="600" y="115" fill="#1b5e20">A</text>
    <text x="700" y="115" fill="#0d47a1">C</text>
    <text x="800" y="115" fill="#7a3d00">G</text>
    <text x="900" y="115" fill="#c62828">T</text>
  </g>

  <!--
    Bottom: 16-bit binary, bit 15 on the LEFT to bit 0 on the RIGHT.
    Cell width 50, height 36. Start x = 150. Total = 800. Centers: 175, 225, 275, ..., 925.
    Bit positions L->R: 15,14,13,12,11,10,9,8,7,6,5,4,3,2,1,0.
    Pairs (high,low) per base, base 0 in bits 1..0:
      base 7 -> bits 15,14: T = 11
      base 6 -> bits 13,12: G = 10
      base 5 -> bits 11,10: C = 01
      base 4 -> bits 9,8:   A = 00
      base 3 -> bits 7,6:   T = 11
      base 2 -> bits 5,4:   G = 10
      base 1 -> bits 3,2:   C = 01
      base 0 -> bits 1,0:   A = 00
    Bits L->R: 1 1 1 0 0 1 0 0 1 1 1 0 0 1 0 0
  -->

  <!-- Arrows from each base box down to its pair of bit cells.
       Base 0 maps to bits (1,0) at x centers (875, 925). Base 7 maps to bits (15,14) at (175, 225). -->

  <g stroke="#555" stroke-width="1.2" fill="none">
    <!-- base 0 (center 200) -> pair center ((875+925)/2 = 900) -->
    <line x1="200" y1="128" x2="900" y2="208" marker-end="url(#arrPack)"/>
    <!-- base 1 (300) -> bits 3,2 centers 825,875 -> 850 -->
    <line x1="300" y1="128" x2="850" y2="208" marker-end="url(#arrPack)"/>
    <!-- base 2 (400) -> bits 5,4 centers 725,775 -> 750 -->
    <line x1="400" y1="128" x2="750" y2="208" marker-end="url(#arrPack)"/>
    <!-- base 3 (500) -> bits 7,6 centers 625,675 -> 650 -->
    <line x1="500" y1="128" x2="650" y2="208" marker-end="url(#arrPack)"/>
    <!-- base 4 (600) -> bits 9,8 centers 525,575 -> 550 -->
    <line x1="600" y1="128" x2="550" y2="208" marker-end="url(#arrPack)"/>
    <!-- base 5 (700) -> bits 11,10 centers 425,475 -> 450 -->
    <line x1="700" y1="128" x2="450" y2="208" marker-end="url(#arrPack)"/>
    <!-- base 6 (800) -> bits 13,12 centers 325,375 -> 350 -->
    <line x1="800" y1="128" x2="350" y2="208" marker-end="url(#arrPack)"/>
    <!-- base 7 (900) -> bits 15,14 centers 225,275 -> wait recompute: bit 15 at center 175, bit 14 at 225 -> pair center 200 -->
    <line x1="900" y1="128" x2="200" y2="208" marker-end="url(#arrPack)"/>
  </g>

  <!-- Bit position labels above bit cells -->
  <g font-family="ui-monospace, monospace" font-size="10" fill="#888" text-anchor="middle">
    <text x="175" y="225">15</text>
    <text x="225" y="225">14</text>
    <text x="275" y="225">13</text>
    <text x="325" y="225">12</text>
    <text x="375" y="225">11</text>
    <text x="425" y="225">10</text>
    <text x="475" y="225">9</text>
    <text x="525" y="225">8</text>
    <text x="575" y="225">7</text>
    <text x="625" y="225">6</text>
    <text x="675" y="225">5</text>
    <text x="725" y="225">4</text>
    <text x="775" y="225">3</text>
    <text x="825" y="225">2</text>
    <text x="875" y="225">1</text>
    <text x="925" y="225">0</text>
  </g>

  <!-- 16 bit cells -->
  <g stroke-width="1">
    <!-- bits 15,14 (T = 1,1) base7, red shading -->
    <rect x="150" y="232" width="50" height="36" fill="#fde0e0" stroke="#c62828"/>
    <rect x="200" y="232" width="50" height="36" fill="#fde0e0" stroke="#c62828"/>
    <!-- bits 13,12 (G = 1,0) base6, orange shading -->
    <rect x="250" y="232" width="50" height="36" fill="#fff3cd" stroke="#d97706"/>
    <rect x="300" y="232" width="50" height="36" fill="#fff3cd" stroke="#d97706"/>
    <!-- bits 11,10 (C = 0,1) base5, blue -->
    <rect x="350" y="232" width="50" height="36" fill="#e3f2fd" stroke="#1976d2"/>
    <rect x="400" y="232" width="50" height="36" fill="#e3f2fd" stroke="#1976d2"/>
    <!-- bits 9,8 (A = 0,0) base4, green -->
    <rect x="450" y="232" width="50" height="36" fill="#e8f5e9" stroke="#2e7d32"/>
    <rect x="500" y="232" width="50" height="36" fill="#e8f5e9" stroke="#2e7d32"/>
    <!-- bits 7,6 (T = 1,1) base3, red -->
    <rect x="550" y="232" width="50" height="36" fill="#fde0e0" stroke="#c62828"/>
    <rect x="600" y="232" width="50" height="36" fill="#fde0e0" stroke="#c62828"/>
    <!-- bits 5,4 (G = 1,0) base2, orange -->
    <rect x="650" y="232" width="50" height="36" fill="#fff3cd" stroke="#d97706"/>
    <rect x="700" y="232" width="50" height="36" fill="#fff3cd" stroke="#d97706"/>
    <!-- bits 3,2 (C = 0,1) base1, blue -->
    <rect x="750" y="232" width="50" height="36" fill="#e3f2fd" stroke="#1976d2"/>
    <rect x="800" y="232" width="50" height="36" fill="#e3f2fd" stroke="#1976d2"/>
    <!-- bits 1,0 (A = 0,0) base0, green -->
    <rect x="850" y="232" width="50" height="36" fill="#e8f5e9" stroke="#2e7d32"/>
    <rect x="900" y="232" width="50" height="36" fill="#e8f5e9" stroke="#2e7d32"/>
  </g>

  <!-- Bit values (left to right): 1 1 1 0 0 1 0 0 1 1 1 0 0 1 0 0 -->
  <g font-family="ui-monospace, monospace" font-size="18" font-weight="600" text-anchor="middle" fill="#111">
    <text x="175" y="257">1</text>
    <text x="225" y="257">1</text>
    <text x="275" y="257">1</text>
    <text x="325" y="257">0</text>
    <text x="375" y="257">0</text>
    <text x="425" y="257">1</text>
    <text x="475" y="257">0</text>
    <text x="525" y="257">0</text>
    <text x="575" y="257">1</text>
    <text x="625" y="257">1</text>
    <text x="675" y="257">1</text>
    <text x="725" y="257">0</text>
    <text x="775" y="257">0</text>
    <text x="825" y="257">1</text>
    <text x="875" y="257">0</text>
    <text x="925" y="257">0</text>
  </g>

  <!-- Byte boundary subtle separator at bit 8/7 boundary (between x=525+25=550) -->
  <line x1="550" y1="232" x2="550" y2="268" stroke="#333" stroke-width="2"/>

  <!-- Full binary + hex below -->
  <text x="550" y="304" text-anchor="middle" font-family="ui-monospace, monospace" font-size="15" fill="#111">packed = 0b11100100_11100100 = 0xe4e4</text>

  <text x="550" y="356" text-anchor="middle" font-size="13" fill="#555">Low-order base first → bit i*2 holds base i's low bit; bit i*2+1 holds its high bit.</text>
</svg>
